<svg width="170" height="38" viewBox="0 0 170 38" fill="none" xmlns="http://www.w3.org/2000/svg">
<rect width="170" height="38" rx="8" fill="#1890FF"/>
<g clip-path="url(#clip0_23_4152)">
<path d="M13.4091 25V13.3636H17.3409C18.2538 13.3636 19 13.5284 19.5795 13.858C20.1629 14.1837 20.5947 14.625 20.875 15.1818C21.1553 15.7386 21.2955 16.3598 21.2955 17.0455C21.2955 17.7311 21.1553 18.3542 20.875 18.9148C20.5985 19.4754 20.1705 19.9223 19.5909 20.2557C19.0114 20.5852 18.2689 20.75 17.3636 20.75H14.5455V19.5H17.3182C17.9432 19.5 18.4451 19.392 18.8239 19.1761C19.2027 18.9602 19.4773 18.6686 19.6477 18.3011C19.822 17.9299 19.9091 17.5114 19.9091 17.0455C19.9091 16.5795 19.822 16.1629 19.6477 15.7955C19.4773 15.428 19.2008 15.1402 18.8182 14.9318C18.4356 14.7197 17.928 14.6136 17.2955 14.6136H14.8182V25H13.4091ZM26.9489 25.1818C26.108 25.1818 25.3826 24.9962 24.7727 24.625C24.1667 24.25 23.6989 23.7273 23.3693 23.0568C23.0436 22.3826 22.8807 21.5985 22.8807 20.7045C22.8807 19.8106 23.0436 19.0227 23.3693 18.3409C23.6989 17.6553 24.1572 17.1212 24.7443 16.7386C25.3352 16.3523 26.0246 16.1591 26.8125 16.1591C27.267 16.1591 27.7159 16.2348 28.1591 16.3864C28.6023 16.5379 29.0057 16.7841 29.3693 17.125C29.733 17.4621 30.0227 17.9091 30.2386 18.4659C30.4545 19.0227 30.5625 19.7083 30.5625 20.5227V21.0909H23.8352V19.9318H29.1989C29.1989 19.4394 29.1004 19 28.9034 18.6136C28.7102 18.2273 28.4337 17.9223 28.0739 17.6989C27.7178 17.4754 27.2973 17.3636 26.8125 17.3636C26.2784 17.3636 25.8163 17.4962 25.4261 17.7614C25.0398 18.0227 24.7424 18.3636 24.5341 18.7841C24.3258 19.2045 24.2216 19.6553 24.2216 20.1364V20.9091C24.2216 21.5682 24.3352 22.1269 24.5625 22.5852C24.7936 23.0398 25.1136 23.3864 25.5227 23.625C25.9318 23.8598 26.4072 23.9773 26.9489 23.9773C27.3011 23.9773 27.6193 23.928 27.9034 23.8295C28.1913 23.7273 28.4394 23.5758 28.6477 23.375C28.8561 23.1705 29.017 22.9167 29.1307 22.6136L30.4261 22.9773C30.2898 23.4167 30.0606 23.803 29.7386 24.1364C29.4167 24.4659 29.0189 24.7235 28.5455 24.9091C28.072 25.0909 27.5398 25.1818 26.9489 25.1818ZM31.6705 27.5V23.75H32.3977C32.5758 23.5644 32.7292 23.3636 32.858 23.1477C32.9867 22.9318 33.0985 22.6761 33.1932 22.3807C33.2917 22.0814 33.375 21.7178 33.4432 21.2898C33.5114 20.858 33.572 20.3371 33.625 19.7273L33.9205 16.2727H39.4659V23.75H40.8068V27.5H39.4659V25H33.0114V27.5H31.6705ZM33.9205 23.75H38.125V17.5227H35.1705L34.9432 19.7273C34.8485 20.6402 34.7311 21.4375 34.5909 22.1193C34.4508 22.8011 34.2273 23.3447 33.9205 23.75ZM45.1548 25.2045C44.6018 25.2045 44.0999 25.1004 43.6491 24.892C43.1984 24.6799 42.8404 24.375 42.5753 23.9773C42.3101 23.5758 42.1776 23.0909 42.1776 22.5227C42.1776 22.0227 42.276 21.6174 42.473 21.3068C42.67 20.9924 42.9332 20.7462 43.2628 20.5682C43.5923 20.3902 43.956 20.2576 44.3537 20.1705C44.7552 20.0795 45.1586 20.0076 45.5639 19.9545C46.0942 19.8864 46.5241 19.8352 46.8537 19.8011C47.187 19.7633 47.4295 19.7008 47.581 19.6136C47.7363 19.5265 47.8139 19.375 47.8139 19.1591V19.1136C47.8139 18.553 47.6605 18.1174 47.3537 17.8068C47.0507 17.4962 46.5904 17.3409 45.973 17.3409C45.3329 17.3409 44.831 17.4811 44.4673 17.7614C44.1037 18.0417 43.848 18.3409 43.7003 18.6591L42.4276 18.2045C42.6548 17.6742 42.9579 17.2614 43.3366 16.9659C43.7192 16.6667 44.1359 16.4583 44.5866 16.3409C45.0412 16.2197 45.4882 16.1591 45.9276 16.1591C46.2079 16.1591 46.5298 16.1932 46.8935 16.2614C47.2609 16.3258 47.6151 16.4602 47.956 16.6648C48.3007 16.8693 48.5866 17.178 48.8139 17.5909C49.0412 18.0038 49.1548 18.5568 49.1548 19.25V25H47.8139V23.8182H47.7457C47.6548 24.0076 47.5033 24.2102 47.2912 24.4261C47.0791 24.642 46.7969 24.8258 46.4446 24.9773C46.0923 25.1288 45.6624 25.2045 45.1548 25.2045ZM45.3594 24C45.8897 24 46.3366 23.8958 46.7003 23.6875C47.0677 23.4792 47.3442 23.2102 47.5298 22.8807C47.7192 22.5511 47.8139 22.2045 47.8139 21.8409V20.6136C47.7571 20.6818 47.6321 20.7443 47.4389 20.8011C47.2495 20.8542 47.0298 20.9015 46.7798 20.9432C46.5336 20.9811 46.2931 21.0152 46.0582 21.0455C45.8272 21.072 45.6397 21.0947 45.4957 21.1136C45.1473 21.1591 44.8215 21.233 44.5185 21.3352C44.2192 21.4337 43.9768 21.5833 43.7912 21.7841C43.6094 21.9811 43.5185 22.25 43.5185 22.5909C43.5185 23.0568 43.6908 23.4091 44.0355 23.6477C44.384 23.8826 44.8253 24 45.3594 24ZM51.6023 25V16.2727H52.9432V20.0682H53.8295L56.9659 16.2727H58.6932L55.1705 20.4773L58.7386 25H57.0114L54.1477 21.3182H52.9432V25H51.6023ZM59.696 17.5227V16.2727H66.7869V17.5227H63.9233V25H62.5824V17.5227H59.696ZM70.0838 23.0227L74.2884 16.2727H75.8338V25H74.4929V18.25L70.3111 25H68.7429V16.2727H70.0838V23.0227ZM78.2898 28.2727V16.2727H79.5852V17.6591H79.7443C79.8428 17.5076 79.9792 17.3144 80.1534 17.0795C80.3314 16.8409 80.5852 16.6288 80.9148 16.4432C81.2481 16.2538 81.6989 16.1591 82.267 16.1591C83.0019 16.1591 83.6496 16.3428 84.2102 16.7102C84.7708 17.0777 85.2083 17.5985 85.5227 18.2727C85.8371 18.947 85.9943 19.7424 85.9943 20.6591C85.9943 21.5833 85.8371 22.3845 85.5227 23.0625C85.2083 23.7367 84.7727 24.2595 84.2159 24.6307C83.6591 24.9981 83.017 25.1818 82.2898 25.1818C81.7292 25.1818 81.2803 25.089 80.9432 24.9034C80.6061 24.714 80.3466 24.5 80.1648 24.2614C79.983 24.0189 79.8428 23.8182 79.7443 23.6591H79.6307V28.2727H78.2898ZM79.608 20.6364C79.608 21.2955 79.7045 21.8769 79.8977 22.3807C80.0909 22.8807 80.3731 23.2727 80.7443 23.5568C81.1155 23.8371 81.5701 23.9773 82.108 23.9773C82.6686 23.9773 83.1364 23.8295 83.5114 23.5341C83.8902 23.2348 84.1742 22.8333 84.3636 22.3295C84.5568 21.822 84.6534 21.2576 84.6534 20.6364C84.6534 20.0227 84.5587 19.4697 84.3693 18.9773C84.1837 18.4811 83.9015 18.089 83.5227 17.8011C83.1477 17.5095 82.6761 17.3636 82.108 17.3636C81.5625 17.3636 81.1042 17.5019 80.733 17.7784C80.3617 18.0511 80.0814 18.4337 79.892 18.9261C79.7027 19.4148 79.608 19.9848 79.608 20.6364ZM91.5852 25.1818C90.7973 25.1818 90.1061 24.9943 89.5114 24.6193C88.9205 24.2443 88.4583 23.7197 88.125 23.0455C87.7955 22.3712 87.6307 21.5833 87.6307 20.6818C87.6307 19.7727 87.7955 18.9792 88.125 18.3011C88.4583 17.6231 88.9205 17.0966 89.5114 16.7216C90.1061 16.3466 90.7973 16.1591 91.5852 16.1591C92.3731 16.1591 93.0625 16.3466 93.6534 16.7216C94.2481 17.0966 94.7102 17.6231 95.0398 18.3011C95.3731 18.9792 95.5398 19.7727 95.5398 20.6818C95.5398 21.5833 95.3731 22.3712 95.0398 23.0455C94.7102 23.7197 94.2481 24.2443 93.6534 24.6193C93.0625 24.9943 92.3731 25.1818 91.5852 25.1818ZM91.5852 23.9773C92.1837 23.9773 92.6761 23.8239 93.0625 23.517C93.4489 23.2102 93.7348 22.8068 93.9205 22.3068C94.1061 21.8068 94.1989 21.2652 94.1989 20.6818C94.1989 20.0985 94.1061 19.5549 93.9205 19.0511C93.7348 18.5473 93.4489 18.1402 93.0625 17.8295C92.6761 17.5189 92.1837 17.3636 91.5852 17.3636C90.9867 17.3636 90.4943 17.5189 90.108 17.8295C89.7216 18.1402 89.4356 18.5473 89.25 19.0511C89.0644 19.5549 88.9716 20.0985 88.9716 20.6818C88.9716 21.2652 89.0644 21.8068 89.25 22.3068C89.4356 22.8068 89.7216 23.2102 90.108 23.517C90.4943 23.8239 90.9867 23.9773 91.5852 23.9773ZM97.5866 25V16.2727H101.155C102.094 16.2727 102.84 16.4848 103.393 16.9091C103.946 17.3333 104.223 17.8939 104.223 18.5909C104.223 19.1212 104.066 19.5322 103.751 19.8239C103.437 20.1117 103.034 20.3068 102.541 20.4091C102.863 20.4545 103.176 20.5682 103.479 20.75C103.786 20.9318 104.039 21.1818 104.24 21.5C104.441 21.8144 104.541 22.2008 104.541 22.6591C104.541 23.1061 104.428 23.5057 104.2 23.858C103.973 24.2102 103.647 24.4886 103.223 24.6932C102.799 24.8977 102.291 25 101.7 25H97.5866ZM98.8594 23.7727H101.7C102.162 23.7727 102.524 23.6629 102.786 23.4432C103.047 23.2235 103.178 22.9242 103.178 22.5455C103.178 22.0947 103.047 21.7405 102.786 21.483C102.524 21.2216 102.162 21.0909 101.7 21.0909H98.8594V23.7727ZM98.8594 19.9318H101.155C101.515 19.9318 101.823 19.8826 102.081 19.7841C102.339 19.6818 102.536 19.5379 102.672 19.3523C102.812 19.1629 102.882 18.9394 102.882 18.6818C102.882 18.3144 102.729 18.0265 102.422 17.8182C102.115 17.6061 101.693 17.5 101.155 17.5H98.8594V19.9318ZM109.139 25.2045C108.586 25.2045 108.084 25.1004 107.634 24.892C107.183 24.6799 106.825 24.375 106.56 23.9773C106.295 23.5758 106.162 23.0909 106.162 22.5227C106.162 22.0227 106.26 21.6174 106.457 21.3068C106.654 20.9924 106.918 20.7462 107.247 20.5682C107.577 20.3902 107.94 20.2576 108.338 20.1705C108.74 20.0795 109.143 20.0076 109.548 19.9545C110.079 19.8864 110.509 19.8352 110.838 19.8011C111.171 19.7633 111.414 19.7008 111.565 19.6136C111.721 19.5265 111.798 19.375 111.798 19.1591V19.1136C111.798 18.553 111.645 18.1174 111.338 17.8068C111.035 17.4962 110.575 17.3409 109.957 17.3409C109.317 17.3409 108.815 17.4811 108.452 17.7614C108.088 18.0417 107.832 18.3409 107.685 18.6591L106.412 18.2045C106.639 17.6742 106.942 17.2614 107.321 16.9659C107.704 16.6667 108.12 16.4583 108.571 16.3409C109.026 16.2197 109.473 16.1591 109.912 16.1591C110.192 16.1591 110.514 16.1932 110.878 16.2614C111.245 16.3258 111.599 16.4602 111.94 16.6648C112.285 16.8693 112.571 17.178 112.798 17.5909C113.026 18.0038 113.139 18.5568 113.139 19.25V25H111.798V23.8182H111.73C111.639 24.0076 111.488 24.2102 111.276 24.4261C111.063 24.642 110.781 24.8258 110.429 24.9773C110.077 25.1288 109.647 25.2045 109.139 25.2045ZM109.344 24C109.874 24 110.321 23.8958 110.685 23.6875C111.052 23.4792 111.329 23.2102 111.514 22.8807C111.704 22.5511 111.798 22.2045 111.798 21.8409V20.6136C111.741 20.6818 111.616 20.7443 111.423 20.8011C111.234 20.8542 111.014 20.9015 110.764 20.9432C110.518 20.9811 110.277 21.0152 110.043 21.0455C109.812 21.072 109.624 21.0947 109.48 21.1136C109.132 21.1591 108.806 21.233 108.503 21.3352C108.204 21.4337 107.961 21.5833 107.776 21.7841C107.594 21.9811 107.503 22.25 107.503 22.5909C107.503 23.0568 107.675 23.4091 108.02 23.6477C108.368 23.8826 108.81 24 109.344 24ZM114.399 17.5227V16.2727H121.49V17.5227H118.626V25H117.286V17.5227H114.399ZM124.605 19.4318H127.105C128.128 19.4318 128.91 19.6913 129.452 20.2102C129.993 20.7292 130.264 21.3864 130.264 22.1818C130.264 22.7045 130.143 23.1799 129.901 23.608C129.658 24.0322 129.302 24.3712 128.832 24.625C128.363 24.875 127.787 25 127.105 25H123.446V16.2727H124.787V23.75H127.105C127.635 23.75 128.071 23.6098 128.412 23.3295C128.753 23.0492 128.923 22.6894 128.923 22.25C128.923 21.7879 128.753 21.411 128.412 21.1193C128.071 20.8277 127.635 20.6818 127.105 20.6818H124.605V19.4318Z" fill="#F3F3F3"/>
</g>
<g clip-path="url(#clip1_23_4152)">
<path d="M143.891 23.8196C143.931 23.8196 143.971 23.8156 144.012 23.8095L147.391 23.2169C147.431 23.2089 147.469 23.1908 147.497 23.1607L156.013 14.6448C156.032 14.6262 156.046 14.6042 156.056 14.5799C156.067 14.5555 156.072 14.5295 156.072 14.5032C156.072 14.4769 156.067 14.4508 156.056 14.4265C156.046 14.4022 156.032 14.3801 156.013 14.3616L152.674 11.0207C152.636 10.9825 152.586 10.9624 152.531 10.9624C152.477 10.9624 152.427 10.9825 152.389 11.0207L143.873 19.5366C143.843 19.5667 143.825 19.6028 143.817 19.643L143.224 23.022C143.205 23.1297 143.212 23.2404 143.244 23.3447C143.277 23.4491 143.335 23.5438 143.413 23.6207C143.546 23.7493 143.712 23.8196 143.891 23.8196ZM145.245 20.316L152.531 13.0316L154.004 14.5042L146.718 21.7886L144.932 22.104L145.245 20.316ZM156.393 25.5071H141.607C141.251 25.5071 140.964 25.7944 140.964 26.1499V26.8732C140.964 26.9616 141.036 27.0339 141.125 27.0339H156.875C156.963 27.0339 157.035 26.9616 157.035 26.8732V26.1499C157.035 25.7944 156.748 25.5071 156.393 25.5071Z" fill="white"/>
</g>
<defs>
<clipPath id="clip0_23_4152">
<rect width="120" height="22" fill="white" transform="translate(12 8)"/>
</clipPath>
<clipPath id="clip1_23_4152">
<rect width="18" height="18" fill="white" transform="translate(140 10)"/>
</clipPath>
</defs>
</svg>
