<svg width="379" height="118" viewBox="0 0 379 118" fill="none" xmlns="http://www.w3.org/2000/svg">
<rect x="0.5" y="0.5" width="326" height="117" rx="1.5" fill="#FFF1F0"/>
<rect x="0.5" y="0.5" width="326" height="117" rx="1.5" stroke="#FFCCC7"/>
<path d="M30 11C36.6268 11 42 16.3732 42 23C42 29.6268 36.6268 35 30 35C23.3732 35 18 29.6268 18 23C18 16.3732 23.3732 11 30 11ZM30 13.0361C24.4982 13.0361 20.0361 17.4982 20.0361 23C20.0361 28.5018 24.4982 32.9639 30 32.9639C35.5018 32.9639 39.9639 28.5018 39.9639 23C39.9639 17.4982 35.5018 13.0361 30 13.0361ZM34.4297 18.5498C34.5474 18.5498 34.6443 18.646 34.6445 18.7637C34.6445 18.8146 34.6278 18.8658 34.5957 18.9033L31.1113 23.0547L34.5908 27.2041C34.623 27.2443 34.6416 27.2929 34.6416 27.3438C34.6415 27.464 34.5453 27.5574 34.4277 27.5576L32.6592 27.5498L30 24.3779L27.3398 27.5527L25.5693 27.5605C25.4516 27.5605 25.3557 27.4643 25.3555 27.3467C25.356 27.2958 25.3739 27.2463 25.4062 27.207L28.8906 23.0576L25.4062 18.9062C25.3741 18.8661 25.3555 18.8175 25.3555 18.7666C25.3556 18.6461 25.4515 18.5527 25.5693 18.5527L27.3398 18.5605L30 21.7324L32.6621 18.5576L34.4297 18.5498Z" fill="#FF4D4F"/>
<path d="M62.8184 22.709V23.3379C62.8184 24.0853 62.7249 24.7552 62.5381 25.3477C62.3512 25.9401 62.0824 26.4437 61.7314 26.8584C61.3805 27.2731 60.959 27.5898 60.4668 27.8086C59.9792 28.0273 59.4323 28.1367 58.8262 28.1367C58.2383 28.1367 57.6982 28.0273 57.2061 27.8086C56.7184 27.5898 56.2946 27.2731 55.9346 26.8584C55.5791 26.4437 55.3034 25.9401 55.1074 25.3477C54.9115 24.7552 54.8135 24.0853 54.8135 23.3379V22.709C54.8135 21.9616 54.9092 21.2939 55.1006 20.7061C55.2965 20.1136 55.5723 19.61 55.9277 19.1953C56.2832 18.776 56.7048 18.457 57.1924 18.2383C57.6846 18.0195 58.2246 17.9102 58.8125 17.9102C59.4186 17.9102 59.9655 18.0195 60.4531 18.2383C60.9453 18.457 61.3669 18.776 61.7178 19.1953C62.0732 19.61 62.3444 20.1136 62.5312 20.7061C62.7227 21.2939 62.8184 21.9616 62.8184 22.709ZM61.5127 23.3379V22.6953C61.5127 22.1029 61.4512 21.5788 61.3281 21.123C61.2096 20.6673 61.0342 20.2845 60.8018 19.9746C60.5693 19.6647 60.2845 19.43 59.9473 19.2705C59.6146 19.111 59.2363 19.0312 58.8125 19.0312C58.4023 19.0312 58.0309 19.111 57.6982 19.2705C57.3701 19.43 57.0876 19.6647 56.8506 19.9746C56.6182 20.2845 56.4382 20.6673 56.3105 21.123C56.1829 21.5788 56.1191 22.1029 56.1191 22.6953V23.3379C56.1191 23.9349 56.1829 24.4635 56.3105 24.9238C56.4382 25.3796 56.6204 25.7646 56.8574 26.0791C57.099 26.389 57.3838 26.6237 57.7119 26.7832C58.0446 26.9427 58.416 27.0225 58.8262 27.0225C59.2546 27.0225 59.6351 26.9427 59.9678 26.7832C60.3005 26.6237 60.5807 26.389 60.8086 26.0791C61.041 25.7646 61.2165 25.3796 61.335 24.9238C61.4535 24.4635 61.5127 23.9349 61.5127 23.3379ZM64.7119 20.6035H65.9766V26.9609H68.6836V20.6035H69.9551V26.9609H72.6553V20.6035H73.9199V28H64.7119V20.6035ZM77.3037 25.9971L80.7148 20.6035H81.9863V28H80.7148V22.6064L77.3037 28H76.0459V20.6035H77.3037V25.9971ZM88.7607 17.3838H89.7998C89.7998 17.8304 89.7314 18.1859 89.5947 18.4502C89.458 18.71 89.2712 18.9105 89.0342 19.0518C88.8018 19.193 88.5374 19.3001 88.2412 19.373C87.9495 19.446 87.6465 19.5166 87.332 19.585C86.9401 19.667 86.5755 19.7969 86.2383 19.9746C85.9056 20.1478 85.6185 20.3939 85.377 20.7129C85.14 21.0319 84.9645 21.4466 84.8506 21.957C84.7412 22.4674 84.7116 23.0986 84.7617 23.8506V24.4795H83.7227V23.8506C83.7227 23.0075 83.8024 22.2715 83.9619 21.6426C84.126 21.0137 84.3561 20.4827 84.6523 20.0498C84.9486 19.6169 85.2995 19.2728 85.7051 19.0176C86.1152 18.7624 86.5664 18.5869 87.0586 18.4912C87.4141 18.4229 87.7194 18.3499 87.9746 18.2725C88.2298 18.1904 88.4235 18.0811 88.5557 17.9443C88.6924 17.8076 88.7607 17.6208 88.7607 17.3838ZM87.2637 21.0273C87.7467 21.0273 88.1774 21.1117 88.5557 21.2803C88.9339 21.4489 89.2552 21.6836 89.5195 21.9844C89.7839 22.2852 89.9844 22.6406 90.1211 23.0508C90.2624 23.4564 90.333 23.8984 90.333 24.377V24.5273C90.333 25.0423 90.2578 25.5208 90.1074 25.9629C89.9616 26.4004 89.7451 26.7832 89.458 27.1113C89.1755 27.4349 88.8291 27.6878 88.4189 27.8701C88.0133 28.0524 87.5508 28.1436 87.0312 28.1436C86.5117 28.1436 86.0469 28.0524 85.6367 27.8701C85.2311 27.6878 84.8848 27.4349 84.5977 27.1113C84.3105 26.7832 84.0918 26.4004 83.9414 25.9629C83.7956 25.5208 83.7227 25.0423 83.7227 24.5273V24.377C83.7227 24.263 83.7432 24.1514 83.7842 24.042C83.8252 23.9326 83.8753 23.821 83.9346 23.707C83.9984 23.5931 84.0553 23.4723 84.1055 23.3447C84.2741 22.9346 84.5042 22.554 84.7959 22.2031C85.0921 21.8522 85.4453 21.5697 85.8555 21.3555C86.2702 21.1367 86.7396 21.0273 87.2637 21.0273ZM87.0176 22.0596C86.5527 22.0596 86.1699 22.1667 85.8691 22.3809C85.5729 22.5951 85.3519 22.8799 85.2061 23.2354C85.0602 23.5863 84.9873 23.9668 84.9873 24.377V24.5273C84.9873 24.8737 85.0283 25.2018 85.1104 25.5117C85.1924 25.8216 85.3154 26.0973 85.4795 26.3389C85.6481 26.5758 85.86 26.7627 86.1152 26.8994C86.375 27.0361 86.6803 27.1045 87.0312 27.1045C87.3822 27.1045 87.6852 27.0361 87.9404 26.8994C88.1956 26.7627 88.4053 26.5758 88.5693 26.3389C88.7334 26.0973 88.8564 25.8216 88.9385 25.5117C89.0205 25.2018 89.0615 24.8737 89.0615 24.5273V24.377C89.0615 24.0671 89.0205 23.7731 88.9385 23.4951C88.8564 23.2171 88.7311 22.971 88.5625 22.7568C88.3984 22.5426 88.1865 22.374 87.9268 22.251C87.6715 22.1234 87.3685 22.0596 87.0176 22.0596ZM93.0195 20.6035V28H91.7549V20.6035H93.0195ZM97.873 20.6035L94.3662 24.8418H92.5957L92.4043 23.7344H93.8535L96.335 20.6035H97.873ZM96.5127 28L93.792 24.6504L94.6055 23.7344L98.1191 28H96.5127ZM103.581 26.7354V22.9277C103.581 22.6361 103.522 22.3831 103.403 22.1689C103.289 21.9502 103.116 21.7816 102.884 21.6631C102.651 21.5446 102.364 21.4854 102.022 21.4854C101.703 21.4854 101.423 21.54 101.182 21.6494C100.945 21.7588 100.758 21.9023 100.621 22.0801C100.489 22.2578 100.423 22.4492 100.423 22.6543H99.1582C99.1582 22.39 99.2266 22.1279 99.3633 21.8682C99.5 21.6084 99.696 21.3737 99.9512 21.1641C100.211 20.9499 100.521 20.7812 100.881 20.6582C101.245 20.5306 101.651 20.4668 102.098 20.4668C102.635 20.4668 103.109 20.5579 103.52 20.7402C103.934 20.9225 104.258 21.1982 104.49 21.5674C104.727 21.932 104.846 22.39 104.846 22.9414V26.3867C104.846 26.6328 104.866 26.8949 104.907 27.1729C104.953 27.4508 105.019 27.6901 105.105 27.8906V28H103.786C103.722 27.8542 103.672 27.6605 103.636 27.4189C103.599 27.1729 103.581 26.945 103.581 26.7354ZM103.8 23.5156L103.813 24.4043H102.535C102.175 24.4043 101.854 24.4339 101.571 24.4932C101.289 24.5479 101.052 24.6322 100.86 24.7461C100.669 24.86 100.523 25.0036 100.423 25.1768C100.323 25.3454 100.272 25.5436 100.272 25.7715C100.272 26.0039 100.325 26.2158 100.43 26.4072C100.535 26.5986 100.692 26.7513 100.901 26.8652C101.116 26.9746 101.378 27.0293 101.688 27.0293C102.075 27.0293 102.417 26.9473 102.713 26.7832C103.009 26.6191 103.244 26.4186 103.417 26.1816C103.595 25.9447 103.69 25.7145 103.704 25.4912L104.244 26.0996C104.212 26.291 104.126 26.5029 103.984 26.7354C103.843 26.9678 103.654 27.1911 103.417 27.4053C103.185 27.6149 102.907 27.7904 102.583 27.9316C102.264 28.0684 101.904 28.1367 101.503 28.1367C101.002 28.1367 100.562 28.0387 100.184 27.8428C99.8099 27.6468 99.5182 27.3848 99.3086 27.0566C99.1035 26.724 99.001 26.3525 99.001 25.9424C99.001 25.5459 99.0785 25.1973 99.2334 24.8965C99.3883 24.5911 99.6117 24.3382 99.9033 24.1377C100.195 23.9326 100.546 23.7777 100.956 23.6729C101.366 23.568 101.824 23.5156 102.33 23.5156H103.8ZM113.268 27.0977C113.568 27.0977 113.846 27.0361 114.102 26.9131C114.357 26.79 114.566 26.6214 114.73 26.4072C114.895 26.1885 114.988 25.9401 115.011 25.6621H116.214C116.191 26.0996 116.043 26.5075 115.77 26.8857C115.501 27.2594 115.147 27.5625 114.71 27.7949C114.272 28.0228 113.792 28.1367 113.268 28.1367C112.712 28.1367 112.226 28.0387 111.812 27.8428C111.401 27.6468 111.06 27.3779 110.786 27.0361C110.517 26.6943 110.314 26.3024 110.178 25.8604C110.046 25.4137 109.979 24.9421 109.979 24.4453V24.1582C109.979 23.6615 110.046 23.1921 110.178 22.75C110.314 22.3034 110.517 21.9092 110.786 21.5674C111.06 21.2256 111.401 20.9567 111.812 20.7607C112.226 20.5648 112.712 20.4668 113.268 20.4668C113.846 20.4668 114.352 20.5853 114.785 20.8223C115.218 21.0547 115.558 21.3737 115.804 21.7793C116.054 22.1803 116.191 22.6361 116.214 23.1465H115.011C114.988 22.8411 114.901 22.5654 114.751 22.3193C114.605 22.0732 114.405 21.8773 114.149 21.7314C113.899 21.5811 113.605 21.5059 113.268 21.5059C112.88 21.5059 112.554 21.5833 112.29 21.7383C112.03 21.8887 111.823 22.0938 111.668 22.3535C111.518 22.6087 111.408 22.8936 111.34 23.208C111.276 23.5179 111.244 23.8346 111.244 24.1582V24.4453C111.244 24.7689 111.276 25.0879 111.34 25.4023C111.404 25.7168 111.511 26.0016 111.661 26.2568C111.816 26.512 112.023 26.7171 112.283 26.8721C112.548 27.0225 112.876 27.0977 113.268 27.0977ZM117.301 24.3838V24.2266C117.301 23.6934 117.378 23.1989 117.533 22.7432C117.688 22.2829 117.911 21.8841 118.203 21.5469C118.495 21.2051 118.848 20.9408 119.263 20.7539C119.677 20.5625 120.142 20.4668 120.657 20.4668C121.177 20.4668 121.644 20.5625 122.059 20.7539C122.478 20.9408 122.833 21.2051 123.125 21.5469C123.421 21.8841 123.647 22.2829 123.802 22.7432C123.957 23.1989 124.034 23.6934 124.034 24.2266V24.3838C124.034 24.917 123.957 25.4115 123.802 25.8672C123.647 26.3229 123.421 26.7217 123.125 27.0635C122.833 27.4007 122.48 27.665 122.065 27.8564C121.655 28.0433 121.19 28.1367 120.671 28.1367C120.151 28.1367 119.684 28.0433 119.27 27.8564C118.855 27.665 118.499 27.4007 118.203 27.0635C117.911 26.7217 117.688 26.3229 117.533 25.8672C117.378 25.4115 117.301 24.917 117.301 24.3838ZM118.565 24.2266V24.3838C118.565 24.7529 118.609 25.1016 118.695 25.4297C118.782 25.7533 118.912 26.0404 119.085 26.291C119.263 26.5417 119.484 26.7399 119.748 26.8857C120.012 27.027 120.32 27.0977 120.671 27.0977C121.017 27.0977 121.32 27.027 121.58 26.8857C121.844 26.7399 122.063 26.5417 122.236 26.291C122.41 26.0404 122.539 25.7533 122.626 25.4297C122.717 25.1016 122.763 24.7529 122.763 24.3838V24.2266C122.763 23.862 122.717 23.5179 122.626 23.1943C122.539 22.8662 122.407 22.5768 122.229 22.3262C122.056 22.071 121.838 21.8704 121.573 21.7246C121.313 21.5788 121.008 21.5059 120.657 21.5059C120.311 21.5059 120.006 21.5788 119.741 21.7246C119.481 21.8704 119.263 22.071 119.085 22.3262C118.912 22.5768 118.782 22.8662 118.695 23.1943C118.609 23.5179 118.565 23.862 118.565 24.2266ZM126.324 20.6035L127.944 23.2969L129.585 20.6035H131.068L128.648 24.2539L131.144 28H129.681L127.972 25.2246L126.263 28H124.793L127.281 24.2539L124.868 20.6035H126.324ZM133.68 22.0254V30.8438H132.408V20.6035H133.57L133.68 22.0254ZM138.663 24.2402V24.3838C138.663 24.9215 138.599 25.4206 138.472 25.8809C138.344 26.3366 138.157 26.7331 137.911 27.0703C137.67 27.4076 137.371 27.6696 137.016 27.8564C136.66 28.0433 136.252 28.1367 135.792 28.1367C135.323 28.1367 134.908 28.0592 134.548 27.9043C134.188 27.7493 133.882 27.5238 133.632 27.2275C133.381 26.9313 133.181 26.5758 133.03 26.1611C132.884 25.7464 132.784 25.2793 132.729 24.7598V23.9941C132.784 23.4473 132.887 22.9574 133.037 22.5244C133.188 22.0915 133.386 21.7223 133.632 21.417C133.882 21.1071 134.186 20.8724 134.541 20.7129C134.896 20.5488 135.307 20.4668 135.771 20.4668C136.236 20.4668 136.649 20.5579 137.009 20.7402C137.369 20.918 137.672 21.1732 137.918 21.5059C138.164 21.8385 138.349 22.2373 138.472 22.7021C138.599 23.1624 138.663 23.6751 138.663 24.2402ZM137.392 24.3838V24.2402C137.392 23.8711 137.353 23.5247 137.275 23.2012C137.198 22.873 137.077 22.5859 136.913 22.3398C136.754 22.0892 136.549 21.8932 136.298 21.752C136.047 21.6061 135.749 21.5332 135.402 21.5332C135.083 21.5332 134.805 21.5879 134.568 21.6973C134.336 21.8066 134.138 21.9548 133.974 22.1416C133.81 22.3239 133.675 22.5335 133.57 22.7705C133.47 23.0029 133.395 23.2445 133.345 23.4951V25.2656C133.436 25.5846 133.563 25.8854 133.728 26.168C133.892 26.446 134.11 26.6715 134.384 26.8447C134.657 27.0133 135.001 27.0977 135.416 27.0977C135.758 27.0977 136.052 27.027 136.298 26.8857C136.549 26.7399 136.754 26.5417 136.913 26.291C137.077 26.0404 137.198 25.7533 137.275 25.4297C137.353 25.1016 137.392 24.7529 137.392 24.3838ZM144.638 26.7354V22.9277C144.638 22.6361 144.578 22.3831 144.46 22.1689C144.346 21.9502 144.173 21.7816 143.94 21.6631C143.708 21.5446 143.421 21.4854 143.079 21.4854C142.76 21.4854 142.48 21.54 142.238 21.6494C142.001 21.7588 141.814 21.9023 141.678 22.0801C141.546 22.2578 141.479 22.4492 141.479 22.6543H140.215C140.215 22.39 140.283 22.1279 140.42 21.8682C140.557 21.6084 140.753 21.3737 141.008 21.1641C141.268 20.9499 141.577 20.7812 141.938 20.6582C142.302 20.5306 142.708 20.4668 143.154 20.4668C143.692 20.4668 144.166 20.5579 144.576 20.7402C144.991 20.9225 145.314 21.1982 145.547 21.5674C145.784 21.932 145.902 22.39 145.902 22.9414V26.3867C145.902 26.6328 145.923 26.8949 145.964 27.1729C146.009 27.4508 146.076 27.6901 146.162 27.8906V28H144.843C144.779 27.8542 144.729 27.6605 144.692 27.4189C144.656 27.1729 144.638 26.945 144.638 26.7354ZM144.856 23.5156L144.87 24.4043H143.592C143.232 24.4043 142.91 24.4339 142.628 24.4932C142.345 24.5479 142.108 24.6322 141.917 24.7461C141.726 24.86 141.58 25.0036 141.479 25.1768C141.379 25.3454 141.329 25.5436 141.329 25.7715C141.329 26.0039 141.382 26.2158 141.486 26.4072C141.591 26.5986 141.748 26.7513 141.958 26.8652C142.172 26.9746 142.434 27.0293 142.744 27.0293C143.132 27.0293 143.473 26.9473 143.77 26.7832C144.066 26.6191 144.3 26.4186 144.474 26.1816C144.651 25.9447 144.747 25.7145 144.761 25.4912L145.301 26.0996C145.269 26.291 145.182 26.5029 145.041 26.7354C144.9 26.9678 144.711 27.1911 144.474 27.4053C144.241 27.6149 143.963 27.7904 143.64 27.9316C143.321 28.0684 142.961 28.1367 142.56 28.1367C142.058 28.1367 141.618 28.0387 141.24 27.8428C140.867 27.6468 140.575 27.3848 140.365 27.0566C140.16 26.724 140.058 26.3525 140.058 25.9424C140.058 25.5459 140.135 25.1973 140.29 24.8965C140.445 24.5911 140.668 24.3382 140.96 24.1377C141.252 23.9326 141.603 23.7777 142.013 23.6729C142.423 23.568 142.881 23.5156 143.387 23.5156H144.856ZM152.909 23.8096V24.835H148.999V23.8096H152.909ZM149.266 20.6035V28H148.001V20.6035H149.266ZM153.935 20.6035V28H152.663V20.6035H153.935ZM159.041 28.1367C158.526 28.1367 158.059 28.0501 157.64 27.877C157.225 27.6992 156.867 27.4508 156.566 27.1318C156.27 26.8128 156.042 26.4346 155.883 25.9971C155.723 25.5596 155.644 25.0811 155.644 24.5615V24.2744C155.644 23.6729 155.732 23.1374 155.91 22.668C156.088 22.194 156.329 21.793 156.635 21.4648C156.94 21.1367 157.286 20.8883 157.674 20.7197C158.061 20.5511 158.462 20.4668 158.877 20.4668C159.406 20.4668 159.861 20.5579 160.244 20.7402C160.632 20.9225 160.948 21.1777 161.194 21.5059C161.44 21.8294 161.623 22.2122 161.741 22.6543C161.86 23.0918 161.919 23.5703 161.919 24.0898V24.6572H156.396V23.625H160.654V23.5293C160.636 23.2012 160.568 22.8822 160.449 22.5723C160.335 22.2624 160.153 22.0072 159.902 21.8066C159.652 21.6061 159.31 21.5059 158.877 21.5059C158.59 21.5059 158.326 21.5674 158.084 21.6904C157.842 21.8089 157.635 21.9867 157.462 22.2236C157.289 22.4606 157.154 22.75 157.059 23.0918C156.963 23.4336 156.915 23.8278 156.915 24.2744V24.5615C156.915 24.9124 156.963 25.2428 157.059 25.5527C157.159 25.8581 157.302 26.127 157.489 26.3594C157.681 26.5918 157.911 26.7741 158.18 26.9062C158.453 27.0384 158.763 27.1045 159.109 27.1045C159.556 27.1045 159.934 27.0133 160.244 26.8311C160.554 26.6488 160.825 26.4049 161.058 26.0996L161.823 26.708C161.664 26.9495 161.461 27.1797 161.215 27.3984C160.969 27.6172 160.666 27.7949 160.306 27.9316C159.95 28.0684 159.529 28.1367 159.041 28.1367ZM168.413 23.8096V24.835H164.503V23.8096H168.413ZM164.77 20.6035V28H163.505V20.6035H164.77ZM169.438 20.6035V28H168.167V20.6035H169.438ZM172.843 25.9971L176.254 20.6035H177.525V28H176.254V22.6064L172.843 28H171.585V20.6035H172.843V25.9971ZM181.053 24.4727H182.42L180.28 28H178.913L181.053 24.4727ZM182.112 20.6035H185.202V28H183.938V21.6289H182.112C181.752 21.6289 181.458 21.6904 181.23 21.8135C181.003 21.932 180.836 22.0869 180.731 22.2783C180.627 22.4697 180.574 22.668 180.574 22.873C180.574 23.0736 180.622 23.2673 180.718 23.4541C180.813 23.6364 180.964 23.7868 181.169 23.9053C181.374 24.0238 181.638 24.083 181.962 24.083H184.279V25.1221H181.962C181.538 25.1221 181.162 25.0651 180.834 24.9512C180.506 24.8372 180.228 24.68 180 24.4795C179.772 24.2744 179.599 24.0352 179.48 23.7617C179.362 23.4837 179.303 23.1829 179.303 22.8594C179.303 22.5358 179.364 22.2373 179.487 21.9639C179.615 21.6904 179.797 21.4512 180.034 21.2461C180.276 21.041 180.57 20.8838 180.916 20.7744C181.267 20.6605 181.666 20.6035 182.112 20.6035Z" fill="black" fill-opacity="0.85"/>
<path d="M62.7568 49.0469V59H61.4443V50.127H56.5361V59H55.2168V49.0469H62.7568ZM66.2227 53.0254V61.8438H64.9512V51.6035H66.1133L66.2227 53.0254ZM71.2061 55.2402V55.3838C71.2061 55.9215 71.1423 56.4206 71.0146 56.8809C70.887 57.3366 70.7002 57.7331 70.4541 58.0703C70.2126 58.4076 69.9141 58.6696 69.5586 58.8564C69.2031 59.0433 68.7952 59.1367 68.335 59.1367C67.8656 59.1367 67.4508 59.0592 67.0908 58.9043C66.7308 58.7493 66.4255 58.5238 66.1748 58.2275C65.9242 57.9313 65.7236 57.5758 65.5732 57.1611C65.4274 56.7464 65.3271 56.2793 65.2725 55.7598V54.9941C65.3271 54.4473 65.4297 53.9574 65.5801 53.5244C65.7305 53.0915 65.9287 52.7223 66.1748 52.417C66.4255 52.1071 66.7285 51.8724 67.084 51.7129C67.4395 51.5488 67.8496 51.4668 68.3145 51.4668C68.7793 51.4668 69.1917 51.5579 69.5518 51.7402C69.9118 51.918 70.2148 52.1732 70.4609 52.5059C70.707 52.8385 70.8916 53.2373 71.0146 53.7021C71.1423 54.1624 71.2061 54.6751 71.2061 55.2402ZM69.9346 55.3838V55.2402C69.9346 54.8711 69.8958 54.5247 69.8184 54.2012C69.7409 53.873 69.6201 53.5859 69.4561 53.3398C69.2965 53.0892 69.0915 52.8932 68.8408 52.752C68.5902 52.6061 68.2917 52.5332 67.9453 52.5332C67.6263 52.5332 67.3483 52.5879 67.1113 52.6973C66.8789 52.8066 66.6807 52.9548 66.5166 53.1416C66.3525 53.3239 66.2181 53.5335 66.1133 53.7705C66.013 54.0029 65.9378 54.2445 65.8877 54.4951V56.2656C65.9788 56.5846 66.1064 56.8854 66.2705 57.168C66.4346 57.446 66.6533 57.6715 66.9268 57.8447C67.2002 58.0133 67.5443 58.0977 67.959 58.0977C68.3008 58.0977 68.5947 58.027 68.8408 57.8857C69.0915 57.7399 69.2965 57.5417 69.4561 57.291C69.6201 57.0404 69.7409 56.7533 69.8184 56.4297C69.8958 56.1016 69.9346 55.7529 69.9346 55.3838ZM74.1865 56.9971L77.5977 51.6035H78.8691V59H77.5977V53.6064L74.1865 59H72.9287V51.6035H74.1865V56.9971ZM89.3008 51.6035V52.6494H85.5615V51.6035H89.3008ZM85.7461 51.6035V59H84.4814V51.6035H85.7461ZM90.4219 51.6035V59H89.1504V51.6035H90.4219ZM92.1172 55.3838V55.2266C92.1172 54.6934 92.1947 54.1989 92.3496 53.7432C92.5046 53.2829 92.7279 52.8841 93.0195 52.5469C93.3112 52.2051 93.6644 51.9408 94.0791 51.7539C94.4938 51.5625 94.9587 51.4668 95.4736 51.4668C95.9932 51.4668 96.4603 51.5625 96.875 51.7539C97.2943 51.9408 97.6497 52.2051 97.9414 52.5469C98.2376 52.8841 98.4632 53.2829 98.6182 53.7432C98.7731 54.1989 98.8506 54.6934 98.8506 55.2266V55.3838C98.8506 55.917 98.7731 56.4115 98.6182 56.8672C98.4632 57.3229 98.2376 57.7217 97.9414 58.0635C97.6497 58.4007 97.2965 58.665 96.8818 58.8564C96.4717 59.0433 96.0068 59.1367 95.4873 59.1367C94.9678 59.1367 94.5007 59.0433 94.0859 58.8564C93.6712 58.665 93.3158 58.4007 93.0195 58.0635C92.7279 57.7217 92.5046 57.3229 92.3496 56.8672C92.1947 56.4115 92.1172 55.917 92.1172 55.3838ZM93.3818 55.2266V55.3838C93.3818 55.7529 93.4251 56.1016 93.5117 56.4297C93.5983 56.7533 93.7282 57.0404 93.9014 57.291C94.0791 57.5417 94.3001 57.7399 94.5645 57.8857C94.8288 58.027 95.1364 58.0977 95.4873 58.0977C95.8337 58.0977 96.1367 58.027 96.3965 57.8857C96.6608 57.7399 96.8796 57.5417 97.0527 57.291C97.2259 57.0404 97.3558 56.7533 97.4424 56.4297C97.5335 56.1016 97.5791 55.7529 97.5791 55.3838V55.2266C97.5791 54.862 97.5335 54.5179 97.4424 54.1943C97.3558 53.8662 97.2236 53.5768 97.0459 53.3262C96.8727 53.071 96.654 52.8704 96.3896 52.7246C96.1299 52.5788 95.8245 52.5059 95.4736 52.5059C95.1273 52.5059 94.8219 52.5788 94.5576 52.7246C94.2979 52.8704 94.0791 53.071 93.9014 53.3262C93.7282 53.5768 93.5983 53.8662 93.5117 54.1943C93.4251 54.5179 93.3818 54.862 93.3818 55.2266ZM105.365 51.6035V52.6494H101.626V51.6035H105.365ZM101.811 51.6035V59H100.546V51.6035H101.811ZM106.486 51.6035V59H105.215V51.6035H106.486ZM109.556 54.1465H111.777C112.374 54.1465 112.878 54.2513 113.288 54.4609C113.698 54.666 114.008 54.9508 114.218 55.3154C114.432 55.6755 114.539 56.0856 114.539 56.5459C114.539 56.8877 114.48 57.209 114.361 57.5098C114.243 57.806 114.065 58.0658 113.828 58.2891C113.596 58.5124 113.306 58.6878 112.96 58.8154C112.618 58.9385 112.224 59 111.777 59H108.633V51.6035H109.897V57.9609H111.777C112.142 57.9609 112.434 57.8949 112.652 57.7627C112.871 57.6305 113.028 57.4596 113.124 57.25C113.22 57.0404 113.268 56.8216 113.268 56.5938C113.268 56.3704 113.22 56.1517 113.124 55.9375C113.028 55.7233 112.871 55.5456 112.652 55.4043C112.434 55.2585 112.142 55.1855 111.777 55.1855H109.556V54.1465ZM117.171 51.6035V59H115.906V51.6035H117.171ZM122.4 51.6035V59H121.129V51.6035H122.4ZM124.882 51.6035V52.6289H118.695V51.6035H124.882ZM127.5 51.6035V59H126.235V51.6035H127.5ZM132.354 51.6035L128.847 55.8418H127.076L126.885 54.7344H128.334L130.815 51.6035H132.354ZM130.993 59L128.272 55.6504L129.086 54.7344L132.6 59H130.993ZM136.66 59.1367C136.145 59.1367 135.678 59.0501 135.259 58.877C134.844 58.6992 134.486 58.4508 134.186 58.1318C133.889 57.8128 133.661 57.4346 133.502 56.9971C133.342 56.5596 133.263 56.0811 133.263 55.5615V55.2744C133.263 54.6729 133.352 54.1374 133.529 53.668C133.707 53.194 133.949 52.793 134.254 52.4648C134.559 52.1367 134.906 51.8883 135.293 51.7197C135.68 51.5511 136.081 51.4668 136.496 51.4668C137.025 51.4668 137.48 51.5579 137.863 51.7402C138.251 51.9225 138.567 52.1777 138.813 52.5059C139.06 52.8294 139.242 53.2122 139.36 53.6543C139.479 54.0918 139.538 54.5703 139.538 55.0898V55.6572H134.015V54.625H138.273V54.5293C138.255 54.2012 138.187 53.8822 138.068 53.5723C137.954 53.2624 137.772 53.0072 137.521 52.8066C137.271 52.6061 136.929 52.5059 136.496 52.5059C136.209 52.5059 135.945 52.5674 135.703 52.6904C135.462 52.8089 135.254 52.9867 135.081 53.2236C134.908 53.4606 134.773 53.75 134.678 54.0918C134.582 54.4336 134.534 54.8278 134.534 55.2744V55.5615C134.534 55.9124 134.582 56.2428 134.678 56.5527C134.778 56.8581 134.922 57.127 135.108 57.3594C135.3 57.5918 135.53 57.7741 135.799 57.9062C136.072 58.0384 136.382 58.1045 136.729 58.1045C137.175 58.1045 137.553 58.0133 137.863 57.8311C138.173 57.6488 138.444 57.4049 138.677 57.0996L139.442 57.708C139.283 57.9495 139.08 58.1797 138.834 58.3984C138.588 58.6172 138.285 58.7949 137.925 58.9316C137.569 59.0684 137.148 59.1367 136.66 59.1367ZM147.447 58.0977C147.748 58.0977 148.026 58.0361 148.281 57.9131C148.536 57.79 148.746 57.6214 148.91 57.4072C149.074 57.1885 149.168 56.9401 149.19 56.6621H150.394C150.371 57.0996 150.223 57.5075 149.949 57.8857C149.68 58.2594 149.327 58.5625 148.89 58.7949C148.452 59.0228 147.971 59.1367 147.447 59.1367C146.891 59.1367 146.406 59.0387 145.991 58.8428C145.581 58.6468 145.239 58.3779 144.966 58.0361C144.697 57.6943 144.494 57.3024 144.357 56.8604C144.225 56.4137 144.159 55.9421 144.159 55.4453V55.1582C144.159 54.6615 144.225 54.1921 144.357 53.75C144.494 53.3034 144.697 52.9092 144.966 52.5674C145.239 52.2256 145.581 51.9567 145.991 51.7607C146.406 51.5648 146.891 51.4668 147.447 51.4668C148.026 51.4668 148.532 51.5853 148.965 51.8223C149.398 52.0547 149.737 52.3737 149.983 52.7793C150.234 53.1803 150.371 53.6361 150.394 54.1465H149.19C149.168 53.8411 149.081 53.5654 148.931 53.3193C148.785 53.0732 148.584 52.8773 148.329 52.7314C148.078 52.5811 147.785 52.5059 147.447 52.5059C147.06 52.5059 146.734 52.5833 146.47 52.7383C146.21 52.8887 146.003 53.0938 145.848 53.3535C145.697 53.6087 145.588 53.8936 145.52 54.208C145.456 54.5179 145.424 54.8346 145.424 55.1582V55.4453C145.424 55.7689 145.456 56.0879 145.52 56.4023C145.583 56.7168 145.69 57.0016 145.841 57.2568C145.996 57.512 146.203 57.7171 146.463 57.8721C146.727 58.0225 147.055 58.0977 147.447 58.0977ZM151.48 55.3838V55.2266C151.48 54.6934 151.558 54.1989 151.713 53.7432C151.868 53.2829 152.091 52.8841 152.383 52.5469C152.674 52.2051 153.028 51.9408 153.442 51.7539C153.857 51.5625 154.322 51.4668 154.837 51.4668C155.356 51.4668 155.824 51.5625 156.238 51.7539C156.658 51.9408 157.013 52.2051 157.305 52.5469C157.601 52.8841 157.826 53.2829 157.981 53.7432C158.136 54.1989 158.214 54.6934 158.214 55.2266V55.3838C158.214 55.917 158.136 56.4115 157.981 56.8672C157.826 57.3229 157.601 57.7217 157.305 58.0635C157.013 58.4007 156.66 58.665 156.245 58.8564C155.835 59.0433 155.37 59.1367 154.851 59.1367C154.331 59.1367 153.864 59.0433 153.449 58.8564C153.035 58.665 152.679 58.4007 152.383 58.0635C152.091 57.7217 151.868 57.3229 151.713 56.8672C151.558 56.4115 151.48 55.917 151.48 55.3838ZM152.745 55.2266V55.3838C152.745 55.7529 152.788 56.1016 152.875 56.4297C152.962 56.7533 153.091 57.0404 153.265 57.291C153.442 57.5417 153.663 57.7399 153.928 57.8857C154.192 58.027 154.5 58.0977 154.851 58.0977C155.197 58.0977 155.5 58.027 155.76 57.8857C156.024 57.7399 156.243 57.5417 156.416 57.291C156.589 57.0404 156.719 56.7533 156.806 56.4297C156.897 56.1016 156.942 55.7529 156.942 55.3838V55.2266C156.942 54.862 156.897 54.5179 156.806 54.1943C156.719 53.8662 156.587 53.5768 156.409 53.3262C156.236 53.071 156.017 52.8704 155.753 52.7246C155.493 52.5788 155.188 52.5059 154.837 52.5059C154.491 52.5059 154.185 52.5788 153.921 52.7246C153.661 52.8704 153.442 53.071 153.265 53.3262C153.091 53.5768 152.962 53.8662 152.875 54.1943C152.788 54.5179 152.745 54.862 152.745 55.2266ZM160.504 51.6035L162.124 54.2969L163.765 51.6035H165.248L162.828 55.2539L165.323 59H163.86L162.151 56.2246L160.442 59H158.973L161.461 55.2539L159.048 51.6035H160.504ZM167.859 53.0254V61.8438H166.588V51.6035H167.75L167.859 53.0254ZM172.843 55.2402V55.3838C172.843 55.9215 172.779 56.4206 172.651 56.8809C172.524 57.3366 172.337 57.7331 172.091 58.0703C171.849 58.4076 171.551 58.6696 171.195 58.8564C170.84 59.0433 170.432 59.1367 169.972 59.1367C169.502 59.1367 169.088 59.0592 168.728 58.9043C168.368 58.7493 168.062 58.5238 167.812 58.2275C167.561 57.9313 167.36 57.5758 167.21 57.1611C167.064 56.7464 166.964 56.2793 166.909 55.7598V54.9941C166.964 54.4473 167.066 53.9574 167.217 53.5244C167.367 53.0915 167.565 52.7223 167.812 52.417C168.062 52.1071 168.365 51.8724 168.721 51.7129C169.076 51.5488 169.486 51.4668 169.951 51.4668C170.416 51.4668 170.828 51.5579 171.188 51.7402C171.549 51.918 171.852 52.1732 172.098 52.5059C172.344 52.8385 172.528 53.2373 172.651 53.7021C172.779 54.1624 172.843 54.6751 172.843 55.2402ZM171.571 55.3838V55.2402C171.571 54.8711 171.533 54.5247 171.455 54.2012C171.378 53.873 171.257 53.5859 171.093 53.3398C170.933 53.0892 170.728 52.8932 170.478 52.752C170.227 52.6061 169.928 52.5332 169.582 52.5332C169.263 52.5332 168.985 52.5879 168.748 52.6973C168.516 52.8066 168.317 52.9548 168.153 53.1416C167.989 53.3239 167.855 53.5335 167.75 53.7705C167.65 54.0029 167.575 54.2445 167.524 54.4951V56.2656C167.616 56.5846 167.743 56.8854 167.907 57.168C168.071 57.446 168.29 57.6715 168.563 57.8447C168.837 58.0133 169.181 58.0977 169.596 58.0977C169.938 58.0977 170.231 58.027 170.478 57.8857C170.728 57.7399 170.933 57.5417 171.093 57.291C171.257 57.0404 171.378 56.7533 171.455 56.4297C171.533 56.1016 171.571 55.7529 171.571 55.3838ZM178.817 57.7354V53.9277C178.817 53.6361 178.758 53.3831 178.64 53.1689C178.526 52.9502 178.353 52.7816 178.12 52.6631C177.888 52.5446 177.601 52.4854 177.259 52.4854C176.94 52.4854 176.66 52.54 176.418 52.6494C176.181 52.7588 175.994 52.9023 175.857 53.0801C175.725 53.2578 175.659 53.4492 175.659 53.6543H174.395C174.395 53.39 174.463 53.1279 174.6 52.8682C174.736 52.6084 174.932 52.3737 175.188 52.1641C175.447 51.9499 175.757 51.7812 176.117 51.6582C176.482 51.5306 176.887 51.4668 177.334 51.4668C177.872 51.4668 178.346 51.5579 178.756 51.7402C179.171 51.9225 179.494 52.1982 179.727 52.5674C179.964 52.932 180.082 53.39 180.082 53.9414V57.3867C180.082 57.6328 180.103 57.8949 180.144 58.1729C180.189 58.4508 180.255 58.6901 180.342 58.8906V59H179.022C178.959 58.8542 178.909 58.6605 178.872 58.4189C178.836 58.1729 178.817 57.945 178.817 57.7354ZM179.036 54.5156L179.05 55.4043H177.771C177.411 55.4043 177.09 55.4339 176.808 55.4932C176.525 55.5479 176.288 55.6322 176.097 55.7461C175.905 55.86 175.759 56.0036 175.659 56.1768C175.559 56.3454 175.509 56.5436 175.509 56.7715C175.509 57.0039 175.561 57.2158 175.666 57.4072C175.771 57.5986 175.928 57.7513 176.138 57.8652C176.352 57.9746 176.614 58.0293 176.924 58.0293C177.311 58.0293 177.653 57.9473 177.949 57.7832C178.245 57.6191 178.48 57.4186 178.653 57.1816C178.831 56.9447 178.927 56.7145 178.94 56.4912L179.48 57.0996C179.449 57.291 179.362 57.5029 179.221 57.7354C179.079 57.9678 178.89 58.1911 178.653 58.4053C178.421 58.6149 178.143 58.7904 177.819 58.9316C177.5 59.0684 177.14 59.1367 176.739 59.1367C176.238 59.1367 175.798 59.0387 175.42 58.8428C175.046 58.6468 174.755 58.3848 174.545 58.0566C174.34 57.724 174.237 57.3525 174.237 56.9424C174.237 56.5459 174.315 56.1973 174.47 55.8965C174.625 55.5911 174.848 55.3382 175.14 55.1377C175.431 54.9326 175.782 54.7777 176.192 54.6729C176.603 54.568 177.061 54.5156 177.566 54.5156H179.036ZM187.089 54.8096V55.835H183.179V54.8096H187.089ZM183.445 51.6035V59H182.181V51.6035H183.445ZM188.114 51.6035V59H186.843V51.6035H188.114ZM191.519 56.9971L194.93 51.6035H196.201V59H194.93V53.6064L191.519 59H190.261V51.6035H191.519V56.9971ZM201.246 51.6035V59H199.975V51.6035H201.246ZM203.728 51.6035V52.6289H197.541V51.6035H203.728ZM206.011 54.1465H208.232C208.829 54.1465 209.333 54.2513 209.743 54.4609C210.153 54.666 210.463 54.9508 210.673 55.3154C210.887 55.6755 210.994 56.0856 210.994 56.5459C210.994 56.8877 210.935 57.209 210.816 57.5098C210.698 57.806 210.52 58.0658 210.283 58.2891C210.051 58.5124 209.761 58.6878 209.415 58.8154C209.073 58.9385 208.679 59 208.232 59H205.088V51.6035H206.353V57.9609H208.232C208.597 57.9609 208.889 57.8949 209.107 57.7627C209.326 57.6305 209.483 57.4596 209.579 57.25C209.675 57.0404 209.723 56.8216 209.723 56.5938C209.723 56.3704 209.675 56.1517 209.579 55.9375C209.483 55.7233 209.326 55.5456 209.107 55.4043C208.889 55.2585 208.597 55.1855 208.232 55.1855H206.011V54.1465ZM217.413 56.9971L220.824 51.6035H222.096V59H220.824V53.6064L217.413 59H216.155V51.6035H217.413V56.9971ZM226.888 55.4658H225.527V54.6865H226.785C227.136 54.6865 227.414 54.6432 227.619 54.5566C227.824 54.4655 227.97 54.3402 228.057 54.1807C228.143 54.0212 228.187 53.8343 228.187 53.6201C228.187 53.4287 228.136 53.2487 228.036 53.0801C227.94 52.9069 227.785 52.7679 227.571 52.6631C227.357 52.5537 227.07 52.499 226.71 52.499C226.418 52.499 226.154 52.5514 225.917 52.6562C225.68 52.7565 225.491 52.8955 225.35 53.0732C225.213 53.2464 225.145 53.4424 225.145 53.6611H223.88C223.88 53.21 224.007 52.8226 224.263 52.499C224.522 52.1709 224.867 51.918 225.295 51.7402C225.728 51.5625 226.2 51.4736 226.71 51.4736C227.138 51.4736 227.521 51.5215 227.858 51.6172C228.2 51.7083 228.49 51.8451 228.727 52.0273C228.964 52.2051 229.144 52.4284 229.267 52.6973C229.394 52.9616 229.458 53.2692 229.458 53.6201C229.458 53.8708 229.399 54.1077 229.28 54.3311C229.162 54.5544 228.991 54.7526 228.768 54.9258C228.544 55.0944 228.273 55.2266 227.954 55.3223C227.64 55.418 227.284 55.4658 226.888 55.4658ZM225.527 54.9873H226.888C227.33 54.9873 227.719 55.0306 228.057 55.1172C228.394 55.1992 228.676 55.3223 228.904 55.4863C229.132 55.6504 229.303 55.8532 229.417 56.0947C229.535 56.3317 229.595 56.6051 229.595 56.915C229.595 57.2614 229.524 57.5736 229.383 57.8516C229.246 58.125 229.05 58.3574 228.795 58.5488C228.54 58.7402 228.234 58.8861 227.879 58.9863C227.528 59.0866 227.138 59.1367 226.71 59.1367C226.231 59.1367 225.767 59.0547 225.315 58.8906C224.864 58.7266 224.493 58.4736 224.201 58.1318C223.91 57.7855 223.764 57.3457 223.764 56.8125H225.028C225.028 57.0358 225.099 57.2477 225.24 57.4482C225.382 57.6488 225.577 57.8105 225.828 57.9336C226.083 58.0566 226.377 58.1182 226.71 58.1182C227.065 58.1182 227.362 58.0635 227.599 57.9541C227.836 57.8447 228.013 57.6989 228.132 57.5166C228.255 57.3343 228.316 57.1361 228.316 56.9219C228.316 56.6439 228.262 56.4206 228.152 56.252C228.043 56.0833 227.874 55.9603 227.646 55.8828C227.423 55.8008 227.136 55.7598 226.785 55.7598H225.527V54.9873ZM235.487 57.3184L238.003 51.6035H239.22L235.925 59H235.05L231.769 51.6035H232.985L235.487 57.3184ZM232.616 51.6035V59H231.352V51.6035H232.616ZM238.317 59V51.6035H239.589V59H238.317ZM244.695 59.1367C244.18 59.1367 243.713 59.0501 243.294 58.877C242.879 58.6992 242.521 58.4508 242.221 58.1318C241.924 57.8128 241.697 57.4346 241.537 56.9971C241.378 56.5596 241.298 56.0811 241.298 55.5615V55.2744C241.298 54.6729 241.387 54.1374 241.564 53.668C241.742 53.194 241.984 52.793 242.289 52.4648C242.594 52.1367 242.941 51.8883 243.328 51.7197C243.715 51.5511 244.117 51.4668 244.531 51.4668C245.06 51.4668 245.516 51.5579 245.898 51.7402C246.286 51.9225 246.603 52.1777 246.849 52.5059C247.095 52.8294 247.277 53.2122 247.396 53.6543C247.514 54.0918 247.573 54.5703 247.573 55.0898V55.6572H242.05V54.625H246.309V54.5293C246.29 54.2012 246.222 53.8822 246.104 53.5723C245.99 53.2624 245.807 53.0072 245.557 52.8066C245.306 52.6061 244.964 52.5059 244.531 52.5059C244.244 52.5059 243.98 52.5674 243.738 52.6904C243.497 52.8089 243.289 52.9867 243.116 53.2236C242.943 53.4606 242.809 53.75 242.713 54.0918C242.617 54.4336 242.569 54.8278 242.569 55.2744V55.5615C242.569 55.9124 242.617 56.2428 242.713 56.5527C242.813 56.8581 242.957 57.127 243.144 57.3594C243.335 57.5918 243.565 57.7741 243.834 57.9062C244.107 58.0384 244.417 58.1045 244.764 58.1045C245.21 58.1045 245.589 58.0133 245.898 57.8311C246.208 57.6488 246.479 57.4049 246.712 57.0996L247.478 57.708C247.318 57.9495 247.115 58.1797 246.869 58.3984C246.623 58.6172 246.32 58.7949 245.96 58.9316C245.604 59.0684 245.183 59.1367 244.695 59.1367ZM254.067 54.8096V55.835H250.157V54.8096H254.067ZM250.424 51.6035V59H249.159V51.6035H250.424ZM255.093 51.6035V59H253.821V51.6035H255.093ZM260.199 59.1367C259.684 59.1367 259.217 59.0501 258.798 58.877C258.383 58.6992 258.025 58.4508 257.725 58.1318C257.428 57.8128 257.201 57.4346 257.041 56.9971C256.882 56.5596 256.802 56.0811 256.802 55.5615V55.2744C256.802 54.6729 256.891 54.1374 257.068 53.668C257.246 53.194 257.488 52.793 257.793 52.4648C258.098 52.1367 258.445 51.8883 258.832 51.7197C259.219 51.5511 259.62 51.4668 260.035 51.4668C260.564 51.4668 261.02 51.5579 261.402 51.7402C261.79 51.9225 262.106 52.1777 262.353 52.5059C262.599 52.8294 262.781 53.2122 262.899 53.6543C263.018 54.0918 263.077 54.5703 263.077 55.0898V55.6572H257.554V54.625H261.812V54.5293C261.794 54.2012 261.726 53.8822 261.607 53.5723C261.493 53.2624 261.311 53.0072 261.061 52.8066C260.81 52.6061 260.468 52.5059 260.035 52.5059C259.748 52.5059 259.484 52.5674 259.242 52.6904C259.001 52.8089 258.793 52.9867 258.62 53.2236C258.447 53.4606 258.312 53.75 258.217 54.0918C258.121 54.4336 258.073 54.8278 258.073 55.2744V55.5615C258.073 55.9124 258.121 56.2428 258.217 56.5527C258.317 56.8581 258.461 57.127 258.647 57.3594C258.839 57.5918 259.069 57.7741 259.338 57.9062C259.611 58.0384 259.921 58.1045 260.268 58.1045C260.714 58.1045 261.092 58.0133 261.402 57.8311C261.712 57.6488 261.983 57.4049 262.216 57.0996L262.981 57.708C262.822 57.9495 262.619 58.1797 262.373 58.3984C262.127 58.6172 261.824 58.7949 261.464 58.9316C261.108 59.0684 260.687 59.1367 260.199 59.1367ZM269.571 54.8096V55.835H265.661V54.8096H269.571ZM265.928 51.6035V59H264.663V51.6035H265.928ZM270.597 51.6035V59H269.325V51.6035H270.597ZM274.001 56.9971L277.412 51.6035H278.684V59H277.412V53.6064L274.001 59H272.743V51.6035H274.001V56.9971ZM282.211 55.4727H283.578L281.438 59H280.071L282.211 55.4727ZM283.271 51.6035H286.36V59H285.096V52.6289H283.271C282.91 52.6289 282.617 52.6904 282.389 52.8135C282.161 52.932 281.994 53.0869 281.89 53.2783C281.785 53.4697 281.732 53.668 281.732 53.873C281.732 54.0736 281.78 54.2673 281.876 54.4541C281.972 54.6364 282.122 54.7868 282.327 54.9053C282.532 55.0238 282.797 55.083 283.12 55.083H285.438V56.1221H283.12C282.696 56.1221 282.32 56.0651 281.992 55.9512C281.664 55.8372 281.386 55.68 281.158 55.4795C280.93 55.2744 280.757 55.0352 280.639 54.7617C280.52 54.4837 280.461 54.1829 280.461 53.8594C280.461 53.5358 280.522 53.2373 280.646 52.9639C280.773 52.6904 280.955 52.4512 281.192 52.2461C281.434 52.041 281.728 51.8838 282.074 51.7744C282.425 51.6605 282.824 51.6035 283.271 51.6035ZM59.8926 73.6035V74.6494H56.1533V73.6035H59.8926ZM56.3379 73.6035V81H55.0732V73.6035H56.3379ZM61.0137 73.6035V81H59.7422V73.6035H61.0137ZM64.3086 75.0254V83.8438H63.0371V73.6035H64.1992L64.3086 75.0254ZM69.292 77.2402V77.3838C69.292 77.9215 69.2282 78.4206 69.1006 78.8809C68.973 79.3366 68.7861 79.7331 68.54 80.0703C68.2985 80.4076 68 80.6696 67.6445 80.8564C67.2891 81.0433 66.8812 81.1367 66.4209 81.1367C65.9515 81.1367 65.5368 81.0592 65.1768 80.9043C64.8167 80.7493 64.5114 80.5238 64.2607 80.2275C64.0101 79.9313 63.8096 79.5758 63.6592 79.1611C63.5133 78.7464 63.4131 78.2793 63.3584 77.7598V76.9941C63.4131 76.4473 63.5156 75.9574 63.666 75.5244C63.8164 75.0915 64.0146 74.7223 64.2607 74.417C64.5114 74.1071 64.8145 73.8724 65.1699 73.7129C65.5254 73.5488 65.9355 73.4668 66.4004 73.4668C66.8652 73.4668 67.2777 73.5579 67.6377 73.7402C67.9977 73.918 68.3008 74.1732 68.5469 74.5059C68.793 74.8385 68.9775 75.2373 69.1006 75.7021C69.2282 76.1624 69.292 76.6751 69.292 77.2402ZM68.0205 77.3838V77.2402C68.0205 76.8711 67.9818 76.5247 67.9043 76.2012C67.8268 75.873 67.7061 75.5859 67.542 75.3398C67.3825 75.0892 67.1774 74.8932 66.9268 74.752C66.6761 74.6061 66.3776 74.5332 66.0312 74.5332C65.7122 74.5332 65.4342 74.5879 65.1973 74.6973C64.9648 74.8066 64.7666 74.9548 64.6025 75.1416C64.4385 75.3239 64.304 75.5335 64.1992 75.7705C64.099 76.0029 64.0238 76.2445 63.9736 76.4951V78.2656C64.0648 78.5846 64.1924 78.8854 64.3564 79.168C64.5205 79.446 64.7393 79.6715 65.0127 79.8447C65.2861 80.0133 65.6302 80.0977 66.0449 80.0977C66.3867 80.0977 66.6807 80.027 66.9268 79.8857C67.1774 79.7399 67.3825 79.5417 67.542 79.291C67.7061 79.0404 67.8268 78.7533 67.9043 78.4297C67.9818 78.1016 68.0205 77.7529 68.0205 77.3838ZM70.5703 77.3838V77.2266C70.5703 76.6934 70.6478 76.1989 70.8027 75.7432C70.9577 75.2829 71.181 74.8841 71.4727 74.5469C71.7643 74.2051 72.1175 73.9408 72.5322 73.7539C72.9469 73.5625 73.4118 73.4668 73.9268 73.4668C74.4463 73.4668 74.9134 73.5625 75.3281 73.7539C75.7474 73.9408 76.1029 74.2051 76.3945 74.5469C76.6908 74.8841 76.9163 75.2829 77.0713 75.7432C77.2262 76.1989 77.3037 76.6934 77.3037 77.2266V77.3838C77.3037 77.917 77.2262 78.4115 77.0713 78.8672C76.9163 79.3229 76.6908 79.7217 76.3945 80.0635C76.1029 80.4007 75.7497 80.665 75.335 80.8564C74.9248 81.0433 74.46 81.1367 73.9404 81.1367C73.4209 81.1367 72.9538 81.0433 72.5391 80.8564C72.1243 80.665 71.7689 80.4007 71.4727 80.0635C71.181 79.7217 70.9577 79.3229 70.8027 78.8672C70.6478 78.4115 70.5703 77.917 70.5703 77.3838ZM71.835 77.2266V77.3838C71.835 77.7529 71.8783 78.1016 71.9648 78.4297C72.0514 78.7533 72.1813 79.0404 72.3545 79.291C72.5322 79.5417 72.7533 79.7399 73.0176 79.8857C73.2819 80.027 73.5895 80.0977 73.9404 80.0977C74.2868 80.0977 74.5898 80.027 74.8496 79.8857C75.1139 79.7399 75.3327 79.5417 75.5059 79.291C75.679 79.0404 75.8089 78.7533 75.8955 78.4297C75.9867 78.1016 76.0322 77.7529 76.0322 77.3838V77.2266C76.0322 76.862 75.9867 76.5179 75.8955 76.1943C75.8089 75.8662 75.6768 75.5768 75.499 75.3262C75.3258 75.071 75.1071 74.8704 74.8428 74.7246C74.583 74.5788 74.2777 74.5059 73.9268 74.5059C73.5804 74.5059 73.2751 74.5788 73.0107 74.7246C72.751 74.8704 72.5322 75.071 72.3545 75.3262C72.1813 75.5768 72.0514 75.8662 71.9648 76.1943C71.8783 76.5179 71.835 76.862 71.835 77.2266ZM80.2568 78.9971L83.668 73.6035H84.9395V81H83.668V75.6064L80.2568 81H78.999V73.6035H80.2568V78.9971ZM89.7314 77.4658H88.3711V76.6865H89.6289C89.9798 76.6865 90.2578 76.6432 90.4629 76.5566C90.668 76.4655 90.8138 76.3402 90.9004 76.1807C90.987 76.0212 91.0303 75.8343 91.0303 75.6201C91.0303 75.4287 90.9801 75.2487 90.8799 75.0801C90.7842 74.9069 90.6292 74.7679 90.415 74.6631C90.2008 74.5537 89.9137 74.499 89.5537 74.499C89.262 74.499 88.9977 74.5514 88.7607 74.6562C88.5238 74.7565 88.3346 74.8955 88.1934 75.0732C88.0566 75.2464 87.9883 75.4424 87.9883 75.6611H86.7236C86.7236 75.21 86.8512 74.8226 87.1064 74.499C87.3662 74.1709 87.7103 73.918 88.1387 73.7402C88.5716 73.5625 89.0433 73.4736 89.5537 73.4736C89.9821 73.4736 90.3649 73.5215 90.7021 73.6172C91.0439 73.7083 91.3333 73.8451 91.5703 74.0273C91.8073 74.2051 91.9873 74.4284 92.1104 74.6973C92.238 74.9616 92.3018 75.2692 92.3018 75.6201C92.3018 75.8708 92.2425 76.1077 92.124 76.3311C92.0055 76.5544 91.8346 76.7526 91.6113 76.9258C91.388 77.0944 91.1169 77.2266 90.7979 77.3223C90.4834 77.418 90.1279 77.4658 89.7314 77.4658ZM88.3711 76.9873H89.7314C90.1735 76.9873 90.5632 77.0306 90.9004 77.1172C91.2376 77.1992 91.5202 77.3223 91.748 77.4863C91.9759 77.6504 92.1468 77.8532 92.2607 78.0947C92.3792 78.3317 92.4385 78.6051 92.4385 78.915C92.4385 79.2614 92.3678 79.5736 92.2266 79.8516C92.0898 80.125 91.8939 80.3574 91.6387 80.5488C91.3835 80.7402 91.0781 80.8861 90.7227 80.9863C90.3717 81.0866 89.9821 81.1367 89.5537 81.1367C89.0752 81.1367 88.6104 81.0547 88.1592 80.8906C87.708 80.7266 87.3366 80.4736 87.0449 80.1318C86.7533 79.7855 86.6074 79.3457 86.6074 78.8125H87.8721C87.8721 79.0358 87.9427 79.2477 88.084 79.4482C88.2253 79.6488 88.4212 79.8105 88.6719 79.9336C88.9271 80.0566 89.221 80.1182 89.5537 80.1182C89.9092 80.1182 90.2054 80.0635 90.4424 79.9541C90.6794 79.8447 90.8571 79.6989 90.9756 79.5166C91.0986 79.3343 91.1602 79.1361 91.1602 78.9219C91.1602 78.6439 91.1055 78.4206 90.9961 78.252C90.8867 78.0833 90.7181 77.9603 90.4902 77.8828C90.2669 77.8008 89.9798 77.7598 89.6289 77.7598H88.3711V76.9873ZM93.7441 77.3838V77.2266C93.7441 76.6934 93.8216 76.1989 93.9766 75.7432C94.1315 75.2829 94.3548 74.8841 94.6465 74.5469C94.9382 74.2051 95.2913 73.9408 95.7061 73.7539C96.1208 73.5625 96.5856 73.4668 97.1006 73.4668C97.6201 73.4668 98.0872 73.5625 98.502 73.7539C98.9212 73.9408 99.2767 74.2051 99.5684 74.5469C99.8646 74.8841 100.09 75.2829 100.245 75.7432C100.4 76.1989 100.478 76.6934 100.478 77.2266V77.3838C100.478 77.917 100.4 78.4115 100.245 78.8672C100.09 79.3229 99.8646 79.7217 99.5684 80.0635C99.2767 80.4007 98.9235 80.665 98.5088 80.8564C98.0986 81.0433 97.6338 81.1367 97.1143 81.1367C96.5947 81.1367 96.1276 81.0433 95.7129 80.8564C95.2982 80.665 94.9427 80.4007 94.6465 80.0635C94.3548 79.7217 94.1315 79.3229 93.9766 78.8672C93.8216 78.4115 93.7441 77.917 93.7441 77.3838ZM95.0088 77.2266V77.3838C95.0088 77.7529 95.0521 78.1016 95.1387 78.4297C95.2253 78.7533 95.3551 79.0404 95.5283 79.291C95.7061 79.5417 95.9271 79.7399 96.1914 79.8857C96.4557 80.027 96.7633 80.0977 97.1143 80.0977C97.4606 80.0977 97.7637 80.027 98.0234 79.8857C98.2878 79.7399 98.5065 79.5417 98.6797 79.291C98.8529 79.0404 98.9827 78.7533 99.0693 78.4297C99.1605 78.1016 99.2061 77.7529 99.2061 77.3838V77.2266C99.2061 76.862 99.1605 76.5179 99.0693 76.1943C98.9827 75.8662 98.8506 75.5768 98.6729 75.3262C98.4997 75.071 98.2809 74.8704 98.0166 74.7246C97.7568 74.5788 97.4515 74.5059 97.1006 74.5059C96.7542 74.5059 96.4489 74.5788 96.1846 74.7246C95.9248 74.8704 95.7061 75.071 95.5283 75.3262C95.3551 75.5768 95.2253 75.8662 95.1387 76.1943C95.0521 76.5179 95.0088 76.862 95.0088 77.2266ZM102.173 73.6035H103.438V79.9609H106.145V73.6035H107.416V79.9609H110.116V73.6035H111.381V81H102.173V73.6035ZM118.34 73.6035V74.6494H114.765V73.6035H118.34ZM119.454 73.6035V81H118.189V73.6035H119.454ZM114.457 73.6035H115.729L115.537 77.1719C115.505 77.7233 115.453 78.2109 115.38 78.6348C115.312 79.054 115.216 79.4141 115.093 79.7148C114.974 80.0156 114.824 80.2617 114.642 80.4531C114.464 80.64 114.25 80.779 113.999 80.8701C113.748 80.9567 113.459 81 113.131 81H112.734V79.8857L113.008 79.8652C113.204 79.8516 113.37 79.806 113.507 79.7285C113.648 79.651 113.767 79.5371 113.862 79.3867C113.958 79.2318 114.035 79.0335 114.095 78.792C114.159 78.5505 114.206 78.2633 114.238 77.9307C114.275 77.598 114.302 77.2106 114.32 76.7686L114.457 73.6035ZM125.853 79.7354V75.9277C125.853 75.6361 125.793 75.3831 125.675 75.1689C125.561 74.9502 125.388 74.7816 125.155 74.6631C124.923 74.5446 124.636 74.4854 124.294 74.4854C123.975 74.4854 123.695 74.54 123.453 74.6494C123.216 74.7588 123.029 74.9023 122.893 75.0801C122.76 75.2578 122.694 75.4492 122.694 75.6543H121.43C121.43 75.39 121.498 75.1279 121.635 74.8682C121.771 74.6084 121.967 74.3737 122.223 74.1641C122.482 73.9499 122.792 73.7812 123.152 73.6582C123.517 73.5306 123.923 73.4668 124.369 73.4668C124.907 73.4668 125.381 73.5579 125.791 73.7402C126.206 73.9225 126.529 74.1982 126.762 74.5674C126.999 74.932 127.117 75.39 127.117 75.9414V79.3867C127.117 79.6328 127.138 79.8949 127.179 80.1729C127.224 80.4508 127.29 80.6901 127.377 80.8906V81H126.058C125.994 80.8542 125.944 80.6605 125.907 80.4189C125.871 80.1729 125.853 79.945 125.853 79.7354ZM126.071 76.5156L126.085 77.4043H124.807C124.447 77.4043 124.125 77.4339 123.843 77.4932C123.56 77.5479 123.323 77.6322 123.132 77.7461C122.94 77.86 122.795 78.0036 122.694 78.1768C122.594 78.3454 122.544 78.5436 122.544 78.7715C122.544 79.0039 122.596 79.2158 122.701 79.4072C122.806 79.5986 122.963 79.7513 123.173 79.8652C123.387 79.9746 123.649 80.0293 123.959 80.0293C124.346 80.0293 124.688 79.9473 124.984 79.7832C125.281 79.6191 125.515 79.4186 125.688 79.1816C125.866 78.9447 125.962 78.7145 125.976 78.4912L126.516 79.0996C126.484 79.291 126.397 79.5029 126.256 79.7354C126.115 79.9678 125.925 80.1911 125.688 80.4053C125.456 80.6149 125.178 80.7904 124.854 80.9316C124.535 81.0684 124.175 81.1367 123.774 81.1367C123.273 81.1367 122.833 81.0387 122.455 80.8428C122.081 80.6468 121.79 80.3848 121.58 80.0566C121.375 79.724 121.272 79.3525 121.272 78.9424C121.272 78.5459 121.35 78.1973 121.505 77.8965C121.66 77.5911 121.883 77.3382 122.175 77.1377C122.466 76.9326 122.817 76.7777 123.228 76.6729C123.638 76.568 124.096 76.5156 124.602 76.5156H126.071ZM132.244 77.3838V77.2266C132.244 76.6934 132.322 76.1989 132.477 75.7432C132.632 75.2829 132.855 74.8841 133.146 74.5469C133.438 74.2051 133.791 73.9408 134.206 73.7539C134.621 73.5625 135.086 73.4668 135.601 73.4668C136.12 73.4668 136.587 73.5625 137.002 73.7539C137.421 73.9408 137.777 74.2051 138.068 74.5469C138.365 74.8841 138.59 75.2829 138.745 75.7432C138.9 76.1989 138.978 76.6934 138.978 77.2266V77.3838C138.978 77.917 138.9 78.4115 138.745 78.8672C138.59 79.3229 138.365 79.7217 138.068 80.0635C137.777 80.4007 137.424 80.665 137.009 80.8564C136.599 81.0433 136.134 81.1367 135.614 81.1367C135.095 81.1367 134.628 81.0433 134.213 80.8564C133.798 80.665 133.443 80.4007 133.146 80.0635C132.855 79.7217 132.632 79.3229 132.477 78.8672C132.322 78.4115 132.244 77.917 132.244 77.3838ZM133.509 77.2266V77.3838C133.509 77.7529 133.552 78.1016 133.639 78.4297C133.725 78.7533 133.855 79.0404 134.028 79.291C134.206 79.5417 134.427 79.7399 134.691 79.8857C134.956 80.027 135.263 80.0977 135.614 80.0977C135.961 80.0977 136.264 80.027 136.523 79.8857C136.788 79.7399 137.007 79.5417 137.18 79.291C137.353 79.0404 137.483 78.7533 137.569 78.4297C137.66 78.1016 137.706 77.7529 137.706 77.3838V77.2266C137.706 76.862 137.66 76.5179 137.569 76.1943C137.483 75.8662 137.351 75.5768 137.173 75.3262C137 75.071 136.781 74.8704 136.517 74.7246C136.257 74.5788 135.951 74.5059 135.601 74.5059C135.254 74.5059 134.949 74.5788 134.685 74.7246C134.425 74.8704 134.206 75.071 134.028 75.3262C133.855 75.5768 133.725 75.8662 133.639 76.1943C133.552 76.5179 133.509 76.862 133.509 77.2266ZM140.673 73.6035H141.938V79.9609H144.645V73.6035H145.916V79.9609H148.616V73.6035H149.881V81H140.673V73.6035ZM153.265 78.9971L156.676 73.6035H157.947V81H156.676V75.6064L153.265 81H152.007V73.6035H153.265V78.9971ZM164.722 70.3838H165.761C165.761 70.8304 165.692 71.1859 165.556 71.4502C165.419 71.71 165.232 71.9105 164.995 72.0518C164.763 72.193 164.498 72.3001 164.202 72.373C163.91 72.446 163.607 72.5166 163.293 72.585C162.901 72.667 162.536 72.7969 162.199 72.9746C161.867 73.1478 161.579 73.3939 161.338 73.7129C161.101 74.0319 160.925 74.4466 160.812 74.957C160.702 75.4674 160.673 76.0986 160.723 76.8506V77.4795H159.684V76.8506C159.684 76.0075 159.763 75.2715 159.923 74.6426C160.087 74.0137 160.317 73.4827 160.613 73.0498C160.91 72.6169 161.26 72.2728 161.666 72.0176C162.076 71.7624 162.527 71.5869 163.02 71.4912C163.375 71.4229 163.68 71.3499 163.936 71.2725C164.191 71.1904 164.384 71.0811 164.517 70.9443C164.653 70.8076 164.722 70.6208 164.722 70.3838ZM163.225 74.0273C163.708 74.0273 164.138 74.1117 164.517 74.2803C164.895 74.4489 165.216 74.6836 165.48 74.9844C165.745 75.2852 165.945 75.6406 166.082 76.0508C166.223 76.4564 166.294 76.8984 166.294 77.377V77.5273C166.294 78.0423 166.219 78.5208 166.068 78.9629C165.923 79.4004 165.706 79.7832 165.419 80.1113C165.136 80.4349 164.79 80.6878 164.38 80.8701C163.974 81.0524 163.512 81.1436 162.992 81.1436C162.473 81.1436 162.008 81.0524 161.598 80.8701C161.192 80.6878 160.846 80.4349 160.559 80.1113C160.271 79.7832 160.053 79.4004 159.902 78.9629C159.757 78.5208 159.684 78.0423 159.684 77.5273V77.377C159.684 77.263 159.704 77.1514 159.745 77.042C159.786 76.9326 159.836 76.821 159.896 76.707C159.959 76.5931 160.016 76.4723 160.066 76.3447C160.235 75.9346 160.465 75.554 160.757 75.2031C161.053 74.8522 161.406 74.5697 161.816 74.3555C162.231 74.1367 162.701 74.0273 163.225 74.0273ZM162.979 75.0596C162.514 75.0596 162.131 75.1667 161.83 75.3809C161.534 75.5951 161.313 75.8799 161.167 76.2354C161.021 76.5863 160.948 76.9668 160.948 77.377V77.5273C160.948 77.8737 160.989 78.2018 161.071 78.5117C161.153 78.8216 161.276 79.0973 161.44 79.3389C161.609 79.5758 161.821 79.7627 162.076 79.8994C162.336 80.0361 162.641 80.1045 162.992 80.1045C163.343 80.1045 163.646 80.0361 163.901 79.8994C164.157 79.7627 164.366 79.5758 164.53 79.3389C164.694 79.0973 164.817 78.8216 164.899 78.5117C164.981 78.2018 165.022 77.8737 165.022 77.5273V77.377C165.022 77.0671 164.981 76.7731 164.899 76.4951C164.817 76.2171 164.692 75.971 164.523 75.7568C164.359 75.5426 164.147 75.374 163.888 75.251C163.632 75.1234 163.329 75.0596 162.979 75.0596ZM168.98 73.6035V81H167.716V73.6035H168.98ZM173.834 73.6035L170.327 77.8418H168.557L168.365 76.7344H169.814L172.296 73.6035H173.834ZM172.474 81L169.753 77.6504L170.566 76.7344L174.08 81H172.474ZM179.542 79.7354V75.9277C179.542 75.6361 179.483 75.3831 179.364 75.1689C179.25 74.9502 179.077 74.7816 178.845 74.6631C178.612 74.5446 178.325 74.4854 177.983 74.4854C177.664 74.4854 177.384 74.54 177.143 74.6494C176.906 74.7588 176.719 74.9023 176.582 75.0801C176.45 75.2578 176.384 75.4492 176.384 75.6543H175.119C175.119 75.39 175.188 75.1279 175.324 74.8682C175.461 74.6084 175.657 74.3737 175.912 74.1641C176.172 73.9499 176.482 73.7812 176.842 73.6582C177.206 73.5306 177.612 73.4668 178.059 73.4668C178.596 73.4668 179.07 73.5579 179.48 73.7402C179.895 73.9225 180.219 74.1982 180.451 74.5674C180.688 74.932 180.807 75.39 180.807 75.9414V79.3867C180.807 79.6328 180.827 79.8949 180.868 80.1729C180.914 80.4508 180.98 80.6901 181.066 80.8906V81H179.747C179.683 80.8542 179.633 80.6605 179.597 80.4189C179.56 80.1729 179.542 79.945 179.542 79.7354ZM179.761 76.5156L179.774 77.4043H178.496C178.136 77.4043 177.815 77.4339 177.532 77.4932C177.25 77.5479 177.013 77.6322 176.821 77.7461C176.63 77.86 176.484 78.0036 176.384 78.1768C176.284 78.3454 176.233 78.5436 176.233 78.7715C176.233 79.0039 176.286 79.2158 176.391 79.4072C176.495 79.5986 176.653 79.7513 176.862 79.8652C177.076 79.9746 177.339 80.0293 177.648 80.0293C178.036 80.0293 178.378 79.9473 178.674 79.7832C178.97 79.6191 179.205 79.4186 179.378 79.1816C179.556 78.9447 179.651 78.7145 179.665 78.4912L180.205 79.0996C180.173 79.291 180.087 79.5029 179.945 79.7354C179.804 79.9678 179.615 80.1911 179.378 80.4053C179.146 80.6149 178.868 80.7904 178.544 80.9316C178.225 81.0684 177.865 81.1367 177.464 81.1367C176.963 81.1367 176.523 81.0387 176.145 80.8428C175.771 80.6468 175.479 80.3848 175.27 80.0566C175.064 79.724 174.962 79.3525 174.962 78.9424C174.962 78.5459 175.039 78.1973 175.194 77.8965C175.349 77.5911 175.573 77.3382 175.864 77.1377C176.156 76.9326 176.507 76.7777 176.917 76.6729C177.327 76.568 177.785 76.5156 178.291 76.5156H179.761ZM182.816 80.3301C182.816 80.1159 182.882 79.9359 183.015 79.79C183.151 79.6396 183.347 79.5645 183.603 79.5645C183.858 79.5645 184.051 79.6396 184.184 79.79C184.32 79.9359 184.389 80.1159 184.389 80.3301C184.389 80.5397 184.32 80.7174 184.184 80.8633C184.051 81.0091 183.858 81.082 183.603 81.082C183.347 81.082 183.151 81.0091 183.015 80.8633C182.882 80.7174 182.816 80.5397 182.816 80.3301ZM197.753 71.0469V81H196.44V72.127H191.532V81H190.213V71.0469H197.753ZM199.619 77.3838V77.2266C199.619 76.6934 199.697 76.1989 199.852 75.7432C200.007 75.2829 200.23 74.8841 200.521 74.5469C200.813 74.2051 201.166 73.9408 201.581 73.7539C201.996 73.5625 202.461 73.4668 202.976 73.4668C203.495 73.4668 203.962 73.5625 204.377 73.7539C204.796 73.9408 205.152 74.2051 205.443 74.5469C205.74 74.8841 205.965 75.2829 206.12 75.7432C206.275 76.1989 206.353 76.6934 206.353 77.2266V77.3838C206.353 77.917 206.275 78.4115 206.12 78.8672C205.965 79.3229 205.74 79.7217 205.443 80.0635C205.152 80.4007 204.799 80.665 204.384 80.8564C203.974 81.0433 203.509 81.1367 202.989 81.1367C202.47 81.1367 202.003 81.0433 201.588 80.8564C201.173 80.665 200.818 80.4007 200.521 80.0635C200.23 79.7217 200.007 79.3229 199.852 78.8672C199.697 78.4115 199.619 77.917 199.619 77.3838ZM200.884 77.2266V77.3838C200.884 77.7529 200.927 78.1016 201.014 78.4297C201.1 78.7533 201.23 79.0404 201.403 79.291C201.581 79.5417 201.802 79.7399 202.066 79.8857C202.331 80.027 202.638 80.0977 202.989 80.0977C203.336 80.0977 203.639 80.027 203.898 79.8857C204.163 79.7399 204.382 79.5417 204.555 79.291C204.728 79.0404 204.858 78.7533 204.944 78.4297C205.035 78.1016 205.081 77.7529 205.081 77.3838V77.2266C205.081 76.862 205.035 76.5179 204.944 76.1943C204.858 75.8662 204.726 75.5768 204.548 75.3262C204.375 75.071 204.156 74.8704 203.892 74.7246C203.632 74.5788 203.326 74.5059 202.976 74.5059C202.629 74.5059 202.324 74.5788 202.06 74.7246C201.8 74.8704 201.581 75.071 201.403 75.3262C201.23 75.5768 201.1 75.8662 201.014 76.1943C200.927 76.5179 200.884 76.862 200.884 77.2266ZM212.867 73.6035V74.6494H209.128V73.6035H212.867ZM209.312 73.6035V81H208.048V73.6035H209.312ZM213.988 73.6035V81H212.717V73.6035H213.988ZM217.283 75.0254V83.8438H216.012V73.6035H217.174L217.283 75.0254ZM222.267 77.2402V77.3838C222.267 77.9215 222.203 78.4206 222.075 78.8809C221.948 79.3366 221.761 79.7331 221.515 80.0703C221.273 80.4076 220.975 80.6696 220.619 80.8564C220.264 81.0433 219.856 81.1367 219.396 81.1367C218.926 81.1367 218.511 81.0592 218.151 80.9043C217.791 80.7493 217.486 80.5238 217.235 80.2275C216.985 79.9313 216.784 79.5758 216.634 79.1611C216.488 78.7464 216.388 78.2793 216.333 77.7598V76.9941C216.388 76.4473 216.49 75.9574 216.641 75.5244C216.791 75.0915 216.989 74.7223 217.235 74.417C217.486 74.1071 217.789 73.8724 218.145 73.7129C218.5 73.5488 218.91 73.4668 219.375 73.4668C219.84 73.4668 220.252 73.5579 220.612 73.7402C220.972 73.918 221.275 74.1732 221.521 74.5059C221.768 74.8385 221.952 75.2373 222.075 75.7021C222.203 76.1624 222.267 76.6751 222.267 77.2402ZM220.995 77.3838V77.2402C220.995 76.8711 220.956 76.5247 220.879 76.2012C220.801 75.873 220.681 75.5859 220.517 75.3398C220.357 75.0892 220.152 74.8932 219.901 74.752C219.651 74.6061 219.352 74.5332 219.006 74.5332C218.687 74.5332 218.409 74.5879 218.172 74.6973C217.939 74.8066 217.741 74.9548 217.577 75.1416C217.413 75.3239 217.279 75.5335 217.174 75.7705C217.074 76.0029 216.998 76.2445 216.948 76.4951V78.2656C217.039 78.5846 217.167 78.8854 217.331 79.168C217.495 79.446 217.714 79.6715 217.987 79.8447C218.261 80.0133 218.605 80.0977 219.02 80.0977C219.361 80.0977 219.655 80.027 219.901 79.8857C220.152 79.7399 220.357 79.5417 220.517 79.291C220.681 79.0404 220.801 78.7533 220.879 78.4297C220.956 78.1016 220.995 77.7529 220.995 77.3838ZM223.545 77.3838V77.2266C223.545 76.6934 223.622 76.1989 223.777 75.7432C223.932 75.2829 224.156 74.8841 224.447 74.5469C224.739 74.2051 225.092 73.9408 225.507 73.7539C225.922 73.5625 226.386 73.4668 226.901 73.4668C227.421 73.4668 227.888 73.5625 228.303 73.7539C228.722 73.9408 229.077 74.2051 229.369 74.5469C229.665 74.8841 229.891 75.2829 230.046 75.7432C230.201 76.1989 230.278 76.6934 230.278 77.2266V77.3838C230.278 77.917 230.201 78.4115 230.046 78.8672C229.891 79.3229 229.665 79.7217 229.369 80.0635C229.077 80.4007 228.724 80.665 228.31 80.8564C227.899 81.0433 227.435 81.1367 226.915 81.1367C226.396 81.1367 225.928 81.0433 225.514 80.8564C225.099 80.665 224.743 80.4007 224.447 80.0635C224.156 79.7217 223.932 79.3229 223.777 78.8672C223.622 78.4115 223.545 77.917 223.545 77.3838ZM224.81 77.2266V77.3838C224.81 77.7529 224.853 78.1016 224.939 78.4297C225.026 78.7533 225.156 79.0404 225.329 79.291C225.507 79.5417 225.728 79.7399 225.992 79.8857C226.257 80.027 226.564 80.0977 226.915 80.0977C227.261 80.0977 227.564 80.027 227.824 79.8857C228.089 79.7399 228.307 79.5417 228.48 79.291C228.654 79.0404 228.784 78.7533 228.87 78.4297C228.961 78.1016 229.007 77.7529 229.007 77.3838V77.2266C229.007 76.862 228.961 76.5179 228.87 76.1943C228.784 75.8662 228.651 75.5768 228.474 75.3262C228.3 75.071 228.082 74.8704 227.817 74.7246C227.558 74.5788 227.252 74.5059 226.901 74.5059C226.555 74.5059 226.25 74.5788 225.985 74.7246C225.726 74.8704 225.507 75.071 225.329 75.3262C225.156 75.5768 225.026 75.8662 224.939 76.1943C224.853 76.5179 224.81 76.862 224.81 77.2266ZM236.608 70.3838H237.647C237.647 70.8304 237.579 71.1859 237.442 71.4502C237.306 71.71 237.119 71.9105 236.882 72.0518C236.649 72.193 236.385 72.3001 236.089 72.373C235.797 72.446 235.494 72.5166 235.18 72.585C234.788 72.667 234.423 72.7969 234.086 72.9746C233.753 73.1478 233.466 73.3939 233.225 73.7129C232.988 74.0319 232.812 74.4466 232.698 74.957C232.589 75.4674 232.559 76.0986 232.609 76.8506V77.4795H231.57V76.8506C231.57 76.0075 231.65 75.2715 231.81 74.6426C231.974 74.0137 232.204 73.4827 232.5 73.0498C232.796 72.6169 233.147 72.2728 233.553 72.0176C233.963 71.7624 234.414 71.5869 234.906 71.4912C235.262 71.4229 235.567 71.3499 235.822 71.2725C236.077 71.1904 236.271 71.0811 236.403 70.9443C236.54 70.8076 236.608 70.6208 236.608 70.3838ZM235.111 74.0273C235.594 74.0273 236.025 74.1117 236.403 74.2803C236.782 74.4489 237.103 74.6836 237.367 74.9844C237.632 75.2852 237.832 75.6406 237.969 76.0508C238.11 76.4564 238.181 76.8984 238.181 77.377V77.5273C238.181 78.0423 238.105 78.5208 237.955 78.9629C237.809 79.4004 237.593 79.7832 237.306 80.1113C237.023 80.4349 236.677 80.6878 236.267 80.8701C235.861 81.0524 235.398 81.1436 234.879 81.1436C234.359 81.1436 233.895 81.0524 233.484 80.8701C233.079 80.6878 232.732 80.4349 232.445 80.1113C232.158 79.7832 231.939 79.4004 231.789 78.9629C231.643 78.5208 231.57 78.0423 231.57 77.5273V77.377C231.57 77.263 231.591 77.1514 231.632 77.042C231.673 76.9326 231.723 76.821 231.782 76.707C231.846 76.5931 231.903 76.4723 231.953 76.3447C232.122 75.9346 232.352 75.554 232.644 75.2031C232.94 74.8522 233.293 74.5697 233.703 74.3555C234.118 74.1367 234.587 74.0273 235.111 74.0273ZM234.865 75.0596C234.4 75.0596 234.018 75.1667 233.717 75.3809C233.421 75.5951 233.2 75.8799 233.054 76.2354C232.908 76.5863 232.835 76.9668 232.835 77.377V77.5273C232.835 77.8737 232.876 78.2018 232.958 78.5117C233.04 78.8216 233.163 79.0973 233.327 79.3389C233.496 79.5758 233.708 79.7627 233.963 79.8994C234.223 80.0361 234.528 80.1045 234.879 80.1045C235.23 80.1045 235.533 80.0361 235.788 79.8994C236.043 79.7627 236.253 79.5758 236.417 79.3389C236.581 79.0973 236.704 78.8216 236.786 78.5117C236.868 78.2018 236.909 77.8737 236.909 77.5273V77.377C236.909 77.0671 236.868 76.7731 236.786 76.4951C236.704 76.2171 236.579 75.971 236.41 75.7568C236.246 75.5426 236.034 75.374 235.774 75.251C235.519 75.1234 235.216 75.0596 234.865 75.0596ZM241.694 80.2344L243.752 73.6035H245.105L242.139 82.1416C242.07 82.3239 241.979 82.5199 241.865 82.7295C241.756 82.9437 241.615 83.1465 241.441 83.3379C241.268 83.5293 241.059 83.6842 240.812 83.8027C240.571 83.9258 240.282 83.9873 239.944 83.9873C239.844 83.9873 239.716 83.9736 239.562 83.9463C239.407 83.9189 239.297 83.8962 239.233 83.8779L239.227 82.8525C239.263 82.8571 239.32 82.8617 239.397 82.8662C239.479 82.8753 239.536 82.8799 239.568 82.8799C239.855 82.8799 240.099 82.8411 240.3 82.7637C240.5 82.6908 240.669 82.5654 240.806 82.3877C240.947 82.2145 241.068 81.9753 241.168 81.6699L241.694 80.2344ZM240.184 73.6035L242.104 79.3457L242.433 80.6787L241.523 81.1436L238.803 73.6035H240.184ZM247.614 78.9971L251.025 73.6035H252.297V81H251.025V75.6064L247.614 81H246.356V73.6035H247.614V78.9971ZM250.335 70.9238H251.36C251.36 71.2793 251.278 71.596 251.114 71.874C250.95 72.1475 250.715 72.3617 250.41 72.5166C250.105 72.6715 249.743 72.749 249.323 72.749C248.69 72.749 248.188 72.5804 247.819 72.2432C247.455 71.9014 247.272 71.4616 247.272 70.9238H248.298C248.298 71.1927 248.375 71.4297 248.53 71.6348C248.685 71.8398 248.95 71.9424 249.323 71.9424C249.688 71.9424 249.948 71.8398 250.103 71.6348C250.257 71.4297 250.335 71.1927 250.335 70.9238ZM257.342 73.6035V81H256.07V73.6035H257.342ZM259.823 73.6035V74.6289H253.637V73.6035H259.823ZM263.59 81.1367C263.075 81.1367 262.608 81.0501 262.188 80.877C261.774 80.6992 261.416 80.4508 261.115 80.1318C260.819 79.8128 260.591 79.4346 260.432 78.9971C260.272 78.5596 260.192 78.0811 260.192 77.5615V77.2744C260.192 76.6729 260.281 76.1374 260.459 75.668C260.637 75.194 260.878 74.793 261.184 74.4648C261.489 74.1367 261.835 73.8883 262.223 73.7197C262.61 73.5511 263.011 73.4668 263.426 73.4668C263.954 73.4668 264.41 73.5579 264.793 73.7402C265.18 73.9225 265.497 74.1777 265.743 74.5059C265.989 74.8294 266.172 75.2122 266.29 75.6543C266.409 76.0918 266.468 76.5703 266.468 77.0898V77.6572H260.944V76.625H265.203V76.5293C265.185 76.2012 265.117 75.8822 264.998 75.5723C264.884 75.2624 264.702 75.0072 264.451 74.8066C264.201 74.6061 263.859 74.5059 263.426 74.5059C263.139 74.5059 262.874 74.5674 262.633 74.6904C262.391 74.8089 262.184 74.9867 262.011 75.2236C261.838 75.4606 261.703 75.75 261.607 76.0918C261.512 76.4336 261.464 76.8278 261.464 77.2744V77.5615C261.464 77.9124 261.512 78.2428 261.607 78.5527C261.708 78.8581 261.851 79.127 262.038 79.3594C262.229 79.5918 262.46 79.7741 262.729 79.9062C263.002 80.0384 263.312 80.1045 263.658 80.1045C264.105 80.1045 264.483 80.0133 264.793 79.8311C265.103 79.6488 265.374 79.4049 265.606 79.0996L266.372 79.708C266.213 79.9495 266.01 80.1797 265.764 80.3984C265.518 80.6172 265.215 80.7949 264.854 80.9316C264.499 81.0684 264.077 81.1367 263.59 81.1367ZM274.486 81.1367C273.971 81.1367 273.504 81.0501 273.085 80.877C272.67 80.6992 272.312 80.4508 272.012 80.1318C271.715 79.8128 271.488 79.4346 271.328 78.9971C271.169 78.5596 271.089 78.0811 271.089 77.5615V77.2744C271.089 76.6729 271.178 76.1374 271.355 75.668C271.533 75.194 271.775 74.793 272.08 74.4648C272.385 74.1367 272.732 73.8883 273.119 73.7197C273.507 73.5511 273.908 73.4668 274.322 73.4668C274.851 73.4668 275.307 73.5579 275.689 73.7402C276.077 73.9225 276.394 74.1777 276.64 74.5059C276.886 74.8294 277.068 75.2122 277.187 75.6543C277.305 76.0918 277.364 76.5703 277.364 77.0898V77.6572H271.841V76.625H276.1V76.5293C276.081 76.2012 276.013 75.8822 275.895 75.5723C275.781 75.2624 275.598 75.0072 275.348 74.8066C275.097 74.6061 274.755 74.5059 274.322 74.5059C274.035 74.5059 273.771 74.5674 273.529 74.6904C273.288 74.8089 273.08 74.9867 272.907 75.2236C272.734 75.4606 272.6 75.75 272.504 76.0918C272.408 76.4336 272.36 76.8278 272.36 77.2744V77.5615C272.36 77.9124 272.408 78.2428 272.504 78.5527C272.604 78.8581 272.748 79.127 272.935 79.3594C273.126 79.5918 273.356 79.7741 273.625 79.9062C273.898 80.0384 274.208 80.1045 274.555 80.1045C275.001 80.1045 275.38 80.0133 275.689 79.8311C275.999 79.6488 276.271 79.4049 276.503 79.0996L277.269 79.708C277.109 79.9495 276.906 80.1797 276.66 80.3984C276.414 80.6172 276.111 80.7949 275.751 80.9316C275.396 81.0684 274.974 81.1367 274.486 81.1367ZM289.122 79.9609L288.999 83.1943H287.871V81H286.907V79.9609H289.122ZM278.875 73.6035H280.14V79.9609H282.847V73.6035H284.118V79.9609H286.818V73.6035H288.083V81H278.875V73.6035ZM293.586 81.1367C293.071 81.1367 292.604 81.0501 292.185 80.877C291.77 80.6992 291.412 80.4508 291.111 80.1318C290.815 79.8128 290.587 79.4346 290.428 78.9971C290.268 78.5596 290.188 78.0811 290.188 77.5615V77.2744C290.188 76.6729 290.277 76.1374 290.455 75.668C290.633 75.194 290.874 74.793 291.18 74.4648C291.485 74.1367 291.831 73.8883 292.219 73.7197C292.606 73.5511 293.007 73.4668 293.422 73.4668C293.951 73.4668 294.406 73.5579 294.789 73.7402C295.176 73.9225 295.493 74.1777 295.739 74.5059C295.985 74.8294 296.168 75.2122 296.286 75.6543C296.405 76.0918 296.464 76.5703 296.464 77.0898V77.6572H290.94V76.625H295.199V76.5293C295.181 76.2012 295.113 75.8822 294.994 75.5723C294.88 75.2624 294.698 75.0072 294.447 74.8066C294.197 74.6061 293.855 74.5059 293.422 74.5059C293.135 74.5059 292.87 74.5674 292.629 74.6904C292.387 74.8089 292.18 74.9867 292.007 75.2236C291.834 75.4606 291.699 75.75 291.604 76.0918C291.508 76.4336 291.46 76.8278 291.46 77.2744V77.5615C291.46 77.9124 291.508 78.2428 291.604 78.5527C291.704 78.8581 291.847 79.127 292.034 79.3594C292.226 79.5918 292.456 79.7741 292.725 79.9062C292.998 80.0384 293.308 80.1045 293.654 80.1045C294.101 80.1045 294.479 80.0133 294.789 79.8311C295.099 79.6488 295.37 79.4049 295.603 79.0996L296.368 79.708C296.209 79.9495 296.006 80.1797 295.76 80.3984C295.514 80.6172 295.211 80.7949 294.851 80.9316C294.495 81.0684 294.074 81.1367 293.586 81.1367ZM291.214 71.6279C291.214 71.4229 291.278 71.2497 291.405 71.1084C291.533 70.9671 291.717 70.8965 291.959 70.8965C292.205 70.8965 292.392 70.9671 292.52 71.1084C292.647 71.2497 292.711 71.4229 292.711 71.6279C292.711 71.8239 292.647 71.9925 292.52 72.1338C292.392 72.2705 292.205 72.3389 291.959 72.3389C291.717 72.3389 291.533 72.2705 291.405 72.1338C291.278 71.9925 291.214 71.8239 291.214 71.6279ZM294.16 71.6416C294.16 71.4365 294.222 71.2633 294.345 71.1221C294.472 70.9808 294.659 70.9102 294.905 70.9102C295.147 70.9102 295.331 70.9808 295.459 71.1221C295.591 71.2633 295.657 71.4365 295.657 71.6416C295.657 71.8376 295.591 72.0062 295.459 72.1475C295.331 72.2842 295.147 72.3525 294.905 72.3525C294.659 72.3525 294.472 72.2842 294.345 72.1475C294.222 72.0062 294.16 71.8376 294.16 71.6416ZM56.2285 97.0254V105.844H54.957V95.6035H56.1191L56.2285 97.0254ZM61.2119 99.2402V99.3838C61.2119 99.9215 61.1481 100.421 61.0205 100.881C60.8929 101.337 60.7061 101.733 60.46 102.07C60.2184 102.408 59.9199 102.67 59.5645 102.856C59.209 103.043 58.8011 103.137 58.3408 103.137C57.8714 103.137 57.4567 103.059 57.0967 102.904C56.7367 102.749 56.4313 102.524 56.1807 102.228C55.93 101.931 55.7295 101.576 55.5791 101.161C55.4333 100.746 55.333 100.279 55.2783 99.7598V98.9941C55.333 98.4473 55.4355 97.9574 55.5859 97.5244C55.7363 97.0915 55.9346 96.7223 56.1807 96.417C56.4313 96.1071 56.7344 95.8724 57.0898 95.7129C57.4453 95.5488 57.8555 95.4668 58.3203 95.4668C58.7852 95.4668 59.1976 95.5579 59.5576 95.7402C59.9176 95.918 60.2207 96.1732 60.4668 96.5059C60.7129 96.8385 60.8975 97.2373 61.0205 97.7021C61.1481 98.1624 61.2119 98.6751 61.2119 99.2402ZM59.9404 99.3838V99.2402C59.9404 98.8711 59.9017 98.5247 59.8242 98.2012C59.7467 97.873 59.626 97.5859 59.4619 97.3398C59.3024 97.0892 59.0973 96.8932 58.8467 96.752C58.596 96.6061 58.2975 96.5332 57.9512 96.5332C57.6322 96.5332 57.3542 96.5879 57.1172 96.6973C56.8848 96.8066 56.6865 96.9548 56.5225 97.1416C56.3584 97.3239 56.224 97.5335 56.1191 97.7705C56.0189 98.0029 55.9437 98.2445 55.8936 98.4951V100.266C55.9847 100.585 56.1123 100.885 56.2764 101.168C56.4404 101.446 56.6592 101.672 56.9326 101.845C57.2061 102.013 57.5501 102.098 57.9648 102.098C58.3066 102.098 58.6006 102.027 58.8467 101.886C59.0973 101.74 59.3024 101.542 59.4619 101.291C59.626 101.04 59.7467 100.753 59.8242 100.43C59.9017 100.102 59.9404 99.7529 59.9404 99.3838ZM67.1865 101.735V97.9277C67.1865 97.6361 67.1273 97.3831 67.0088 97.1689C66.8949 96.9502 66.7217 96.7816 66.4893 96.6631C66.2568 96.5446 65.9697 96.4854 65.6279 96.4854C65.3089 96.4854 65.0286 96.54 64.7871 96.6494C64.5501 96.7588 64.3633 96.9023 64.2266 97.0801C64.0944 97.2578 64.0283 97.4492 64.0283 97.6543H62.7637C62.7637 97.39 62.832 97.1279 62.9688 96.8682C63.1055 96.6084 63.3014 96.3737 63.5566 96.1641C63.8164 95.9499 64.1263 95.7812 64.4863 95.6582C64.8509 95.5306 65.2565 95.4668 65.7031 95.4668C66.2409 95.4668 66.7148 95.5579 67.125 95.7402C67.5397 95.9225 67.8633 96.1982 68.0957 96.5674C68.3327 96.932 68.4512 97.39 68.4512 97.9414V101.387C68.4512 101.633 68.4717 101.895 68.5127 102.173C68.5583 102.451 68.6243 102.69 68.7109 102.891V103H67.3916C67.3278 102.854 67.2777 102.66 67.2412 102.419C67.2048 102.173 67.1865 101.945 67.1865 101.735ZM67.4053 98.5156L67.4189 99.4043H66.1406C65.7806 99.4043 65.4593 99.4339 65.1768 99.4932C64.8942 99.5479 64.6572 99.6322 64.4658 99.7461C64.2744 99.86 64.1286 100.004 64.0283 100.177C63.9281 100.345 63.8779 100.544 63.8779 100.771C63.8779 101.004 63.9303 101.216 64.0352 101.407C64.14 101.599 64.2972 101.751 64.5068 101.865C64.721 101.975 64.9831 102.029 65.293 102.029C65.6803 102.029 66.0221 101.947 66.3184 101.783C66.6146 101.619 66.8493 101.419 67.0225 101.182C67.2002 100.945 67.2959 100.715 67.3096 100.491L67.8496 101.1C67.8177 101.291 67.7311 101.503 67.5898 101.735C67.4486 101.968 67.2594 102.191 67.0225 102.405C66.79 102.615 66.512 102.79 66.1885 102.932C65.8695 103.068 65.5094 103.137 65.1084 103.137C64.6071 103.137 64.1673 103.039 63.7891 102.843C63.4154 102.647 63.1237 102.385 62.9141 102.057C62.709 101.724 62.6064 101.353 62.6064 100.942C62.6064 100.546 62.6839 100.197 62.8389 99.8965C62.9938 99.5911 63.2171 99.3382 63.5088 99.1377C63.8005 98.9326 64.1514 98.7777 64.5615 98.6729C64.9717 98.568 65.4297 98.5156 65.9355 98.5156H67.4053ZM73.2021 99.4658H71.8418V98.6865H73.0996C73.4505 98.6865 73.7285 98.6432 73.9336 98.5566C74.1387 98.4655 74.2845 98.3402 74.3711 98.1807C74.4577 98.0212 74.501 97.8343 74.501 97.6201C74.501 97.4287 74.4508 97.2487 74.3506 97.0801C74.2549 96.9069 74.0999 96.7679 73.8857 96.6631C73.6715 96.5537 73.3844 96.499 73.0244 96.499C72.7327 96.499 72.4684 96.5514 72.2314 96.6562C71.9945 96.7565 71.8053 96.8955 71.6641 97.0732C71.5273 97.2464 71.459 97.4424 71.459 97.6611H70.1943C70.1943 97.21 70.3219 96.8226 70.5771 96.499C70.8369 96.1709 71.181 95.918 71.6094 95.7402C72.0423 95.5625 72.514 95.4736 73.0244 95.4736C73.4528 95.4736 73.8356 95.5215 74.1729 95.6172C74.5146 95.7083 74.804 95.8451 75.041 96.0273C75.278 96.2051 75.458 96.4284 75.5811 96.6973C75.7087 96.9616 75.7725 97.2692 75.7725 97.6201C75.7725 97.8708 75.7132 98.1077 75.5947 98.3311C75.4762 98.5544 75.3053 98.7526 75.082 98.9258C74.8587 99.0944 74.5876 99.2266 74.2686 99.3223C73.9541 99.418 73.5986 99.4658 73.2021 99.4658ZM71.8418 98.9873H73.2021C73.6442 98.9873 74.0339 99.0306 74.3711 99.1172C74.7083 99.1992 74.9909 99.3223 75.2188 99.4863C75.4466 99.6504 75.6175 99.8532 75.7314 100.095C75.8499 100.332 75.9092 100.605 75.9092 100.915C75.9092 101.261 75.8385 101.574 75.6973 101.852C75.5605 102.125 75.3646 102.357 75.1094 102.549C74.8542 102.74 74.5488 102.886 74.1934 102.986C73.8424 103.087 73.4528 103.137 73.0244 103.137C72.5459 103.137 72.0811 103.055 71.6299 102.891C71.1787 102.727 70.8073 102.474 70.5156 102.132C70.224 101.785 70.0781 101.346 70.0781 100.812H71.3428C71.3428 101.036 71.4134 101.248 71.5547 101.448C71.696 101.649 71.8919 101.811 72.1426 101.934C72.3978 102.057 72.6917 102.118 73.0244 102.118C73.3799 102.118 73.6761 102.063 73.9131 101.954C74.1501 101.845 74.3278 101.699 74.4463 101.517C74.5693 101.334 74.6309 101.136 74.6309 100.922C74.6309 100.644 74.5762 100.421 74.4668 100.252C74.3574 100.083 74.1888 99.9603 73.9609 99.8828C73.7376 99.8008 73.4505 99.7598 73.0996 99.7598H71.8418V98.9873ZM82.3896 100.997L85.8008 95.6035H87.0723V103H85.8008V97.6064L82.3896 103H81.1318V95.6035H82.3896V100.997ZM94.0449 95.6035V96.6494H90.4697V95.6035H94.0449ZM95.1592 95.6035V103H93.8945V95.6035H95.1592ZM90.1621 95.6035H91.4336L91.2422 99.1719C91.2103 99.7233 91.1579 100.211 91.085 100.635C91.0166 101.054 90.9209 101.414 90.7979 101.715C90.6794 102.016 90.529 102.262 90.3467 102.453C90.1689 102.64 89.9548 102.779 89.7041 102.87C89.4535 102.957 89.1641 103 88.8359 103H88.4395V101.886L88.7129 101.865C88.9089 101.852 89.0752 101.806 89.2119 101.729C89.3532 101.651 89.4717 101.537 89.5674 101.387C89.6631 101.232 89.7406 101.034 89.7998 100.792C89.8636 100.55 89.9115 100.263 89.9434 99.9307C89.9798 99.598 90.0072 99.2106 90.0254 98.7686L90.1621 95.6035ZM98.5635 100.997L101.975 95.6035H103.246V103H101.975V97.6064L98.5635 103H97.3057V95.6035H98.5635V100.997ZM111.511 99.4658H110.15V98.6865H111.408C111.759 98.6865 112.037 98.6432 112.242 98.5566C112.447 98.4655 112.593 98.3402 112.68 98.1807C112.766 98.0212 112.81 97.8343 112.81 97.6201C112.81 97.4287 112.759 97.2487 112.659 97.0801C112.563 96.9069 112.409 96.7679 112.194 96.6631C111.98 96.5537 111.693 96.499 111.333 96.499C111.041 96.499 110.777 96.5514 110.54 96.6562C110.303 96.7565 110.114 96.8955 109.973 97.0732C109.836 97.2464 109.768 97.4424 109.768 97.6611H108.503C108.503 97.21 108.631 96.8226 108.886 96.499C109.146 96.1709 109.49 95.918 109.918 95.7402C110.351 95.5625 110.823 95.4736 111.333 95.4736C111.761 95.4736 112.144 95.5215 112.481 95.6172C112.823 95.7083 113.113 95.8451 113.35 96.0273C113.587 96.2051 113.767 96.4284 113.89 96.6973C114.017 96.9616 114.081 97.2692 114.081 97.6201C114.081 97.8708 114.022 98.1077 113.903 98.3311C113.785 98.5544 113.614 98.7526 113.391 98.9258C113.167 99.0944 112.896 99.2266 112.577 99.3223C112.263 99.418 111.907 99.4658 111.511 99.4658ZM110.15 98.9873H111.511C111.953 98.9873 112.342 99.0306 112.68 99.1172C113.017 99.1992 113.299 99.3223 113.527 99.4863C113.755 99.6504 113.926 99.8532 114.04 100.095C114.159 100.332 114.218 100.605 114.218 100.915C114.218 101.261 114.147 101.574 114.006 101.852C113.869 102.125 113.673 102.357 113.418 102.549C113.163 102.74 112.857 102.886 112.502 102.986C112.151 103.087 111.761 103.137 111.333 103.137C110.854 103.137 110.39 103.055 109.938 102.891C109.487 102.727 109.116 102.474 108.824 102.132C108.533 101.785 108.387 101.346 108.387 100.812H109.651C109.651 101.036 109.722 101.248 109.863 101.448C110.005 101.649 110.201 101.811 110.451 101.934C110.706 102.057 111 102.118 111.333 102.118C111.688 102.118 111.985 102.063 112.222 101.954C112.459 101.845 112.636 101.699 112.755 101.517C112.878 101.334 112.939 101.136 112.939 100.922C112.939 100.644 112.885 100.421 112.775 100.252C112.666 100.083 112.497 99.9603 112.27 99.8828C112.046 99.8008 111.759 99.7598 111.408 99.7598H110.15V98.9873ZM120.22 101.735V97.9277C120.22 97.6361 120.16 97.3831 120.042 97.1689C119.928 96.9502 119.755 96.7816 119.522 96.6631C119.29 96.5446 119.003 96.4854 118.661 96.4854C118.342 96.4854 118.062 96.54 117.82 96.6494C117.583 96.7588 117.396 96.9023 117.26 97.0801C117.128 97.2578 117.062 97.4492 117.062 97.6543H115.797C115.797 97.39 115.865 97.1279 116.002 96.8682C116.139 96.6084 116.335 96.3737 116.59 96.1641C116.85 95.9499 117.16 95.7812 117.52 95.6582C117.884 95.5306 118.29 95.4668 118.736 95.4668C119.274 95.4668 119.748 95.5579 120.158 95.7402C120.573 95.9225 120.896 96.1982 121.129 96.5674C121.366 96.932 121.484 97.39 121.484 97.9414V101.387C121.484 101.633 121.505 101.895 121.546 102.173C121.591 102.451 121.658 102.69 121.744 102.891V103H120.425C120.361 102.854 120.311 102.66 120.274 102.419C120.238 102.173 120.22 101.945 120.22 101.735ZM120.438 98.5156L120.452 99.4043H119.174C118.814 99.4043 118.493 99.4339 118.21 99.4932C117.927 99.5479 117.69 99.6322 117.499 99.7461C117.308 99.86 117.162 100.004 117.062 100.177C116.961 100.345 116.911 100.544 116.911 100.771C116.911 101.004 116.964 101.216 117.068 101.407C117.173 101.599 117.33 101.751 117.54 101.865C117.754 101.975 118.016 102.029 118.326 102.029C118.714 102.029 119.055 101.947 119.352 101.783C119.648 101.619 119.882 101.419 120.056 101.182C120.233 100.945 120.329 100.715 120.343 100.491L120.883 101.1C120.851 101.291 120.764 101.503 120.623 101.735C120.482 101.968 120.293 102.191 120.056 102.405C119.823 102.615 119.545 102.79 119.222 102.932C118.903 103.068 118.543 103.137 118.142 103.137C117.64 103.137 117.201 103.039 116.822 102.843C116.449 102.647 116.157 102.385 115.947 102.057C115.742 101.724 115.64 101.353 115.64 100.942C115.64 100.546 115.717 100.197 115.872 99.8965C116.027 99.5911 116.25 99.3382 116.542 99.1377C116.834 98.9326 117.185 98.7777 117.595 98.6729C118.005 98.568 118.463 98.5156 118.969 98.5156H120.438ZM124.841 100.997L128.252 95.6035H129.523V103H128.252V97.6064L124.841 103H123.583V95.6035H124.841V100.997ZM127.562 92.9238H128.587C128.587 93.2793 128.505 93.596 128.341 93.874C128.177 94.1475 127.942 94.3617 127.637 94.5166C127.331 94.6715 126.969 94.749 126.55 94.749C125.916 94.749 125.415 94.5804 125.046 94.2432C124.681 93.9014 124.499 93.4616 124.499 92.9238H125.524C125.524 93.1927 125.602 93.4297 125.757 93.6348C125.912 93.8398 126.176 93.9424 126.55 93.9424C126.914 93.9424 127.174 93.8398 127.329 93.6348C127.484 93.4297 127.562 93.1927 127.562 92.9238ZM132.887 95.6035H134.151L134.042 98.3721C134.015 99.0739 133.935 99.68 133.803 100.19C133.671 100.701 133.502 101.136 133.297 101.496C133.092 101.852 132.862 102.15 132.606 102.392C132.356 102.633 132.096 102.836 131.827 103H131.198L131.232 101.968L131.492 101.961C131.643 101.783 131.788 101.601 131.93 101.414C132.071 101.223 132.201 100.997 132.319 100.737C132.438 100.473 132.536 100.152 132.613 99.7734C132.695 99.3906 132.748 98.9235 132.771 98.3721L132.887 95.6035ZM133.201 95.6035H137.651V103H136.387V96.7725H133.201V95.6035ZM130.911 101.961H138.602V105.181H137.337V103H132.176V105.181H130.904L130.911 101.961ZM141.37 100.997L144.781 95.6035H146.053V103H144.781V97.6064L141.37 103H140.112V95.6035H141.37V100.997ZM151.098 95.6035V103H149.826V95.6035H151.098ZM153.579 95.6035V96.6289H147.393V95.6035H153.579ZM157.346 103.137C156.831 103.137 156.364 103.05 155.944 102.877C155.53 102.699 155.172 102.451 154.871 102.132C154.575 101.813 154.347 101.435 154.188 100.997C154.028 100.56 153.948 100.081 153.948 99.5615V99.2744C153.948 98.6729 154.037 98.1374 154.215 97.668C154.393 97.194 154.634 96.793 154.939 96.4648C155.245 96.1367 155.591 95.8883 155.979 95.7197C156.366 95.5511 156.767 95.4668 157.182 95.4668C157.71 95.4668 158.166 95.5579 158.549 95.7402C158.936 95.9225 159.253 96.1777 159.499 96.5059C159.745 96.8294 159.927 97.2122 160.046 97.6543C160.164 98.0918 160.224 98.5703 160.224 99.0898V99.6572H154.7V98.625H158.959V98.5293C158.941 98.2012 158.872 97.8822 158.754 97.5723C158.64 97.2624 158.458 97.0072 158.207 96.8066C157.956 96.6061 157.615 96.5059 157.182 96.5059C156.895 96.5059 156.63 96.5674 156.389 96.6904C156.147 96.8089 155.94 96.9867 155.767 97.2236C155.593 97.4606 155.459 97.75 155.363 98.0918C155.268 98.4336 155.22 98.8278 155.22 99.2744V99.5615C155.22 99.9124 155.268 100.243 155.363 100.553C155.464 100.858 155.607 101.127 155.794 101.359C155.985 101.592 156.215 101.774 156.484 101.906C156.758 102.038 157.068 102.104 157.414 102.104C157.861 102.104 158.239 102.013 158.549 101.831C158.859 101.649 159.13 101.405 159.362 101.1L160.128 101.708C159.968 101.95 159.766 102.18 159.52 102.398C159.273 102.617 158.97 102.795 158.61 102.932C158.255 103.068 157.833 103.137 157.346 103.137ZM170.102 95.6035V96.6494H166.362V95.6035H170.102ZM166.547 95.6035V103H165.282V95.6035H166.547ZM171.223 95.6035V103H169.951V95.6035H171.223ZM172.918 99.3838V99.2266C172.918 98.6934 172.995 98.1989 173.15 97.7432C173.305 97.2829 173.529 96.8841 173.82 96.5469C174.112 96.2051 174.465 95.9408 174.88 95.7539C175.295 95.5625 175.759 95.4668 176.274 95.4668C176.794 95.4668 177.261 95.5625 177.676 95.7539C178.095 95.9408 178.451 96.2051 178.742 96.5469C179.038 96.8841 179.264 97.2829 179.419 97.7432C179.574 98.1989 179.651 98.6934 179.651 99.2266V99.3838C179.651 99.917 179.574 100.411 179.419 100.867C179.264 101.323 179.038 101.722 178.742 102.063C178.451 102.401 178.097 102.665 177.683 102.856C177.272 103.043 176.808 103.137 176.288 103.137C175.769 103.137 175.301 103.043 174.887 102.856C174.472 102.665 174.117 102.401 173.82 102.063C173.529 101.722 173.305 101.323 173.15 100.867C172.995 100.411 172.918 99.917 172.918 99.3838ZM174.183 99.2266V99.3838C174.183 99.7529 174.226 100.102 174.312 100.43C174.399 100.753 174.529 101.04 174.702 101.291C174.88 101.542 175.101 101.74 175.365 101.886C175.63 102.027 175.937 102.098 176.288 102.098C176.634 102.098 176.938 102.027 177.197 101.886C177.462 101.74 177.68 101.542 177.854 101.291C178.027 101.04 178.157 100.753 178.243 100.43C178.334 100.102 178.38 99.7529 178.38 99.3838V99.2266C178.38 98.862 178.334 98.5179 178.243 98.1943C178.157 97.8662 178.024 97.5768 177.847 97.3262C177.674 97.071 177.455 96.8704 177.19 96.7246C176.931 96.5788 176.625 96.5059 176.274 96.5059C175.928 96.5059 175.623 96.5788 175.358 96.7246C175.099 96.8704 174.88 97.071 174.702 97.3262C174.529 97.5768 174.399 97.8662 174.312 98.1943C174.226 98.5179 174.183 98.862 174.183 99.2266ZM183.999 99.4658H182.639V98.6865H183.896C184.247 98.6865 184.525 98.6432 184.73 98.5566C184.936 98.4655 185.081 98.3402 185.168 98.1807C185.255 98.0212 185.298 97.8343 185.298 97.6201C185.298 97.4287 185.248 97.2487 185.147 97.0801C185.052 96.9069 184.897 96.7679 184.683 96.6631C184.468 96.5537 184.181 96.499 183.821 96.499C183.53 96.499 183.265 96.5514 183.028 96.6562C182.791 96.7565 182.602 96.8955 182.461 97.0732C182.324 97.2464 182.256 97.4424 182.256 97.6611H180.991C180.991 97.21 181.119 96.8226 181.374 96.499C181.634 96.1709 181.978 95.918 182.406 95.7402C182.839 95.5625 183.311 95.4736 183.821 95.4736C184.25 95.4736 184.632 95.5215 184.97 95.6172C185.312 95.7083 185.601 95.8451 185.838 96.0273C186.075 96.2051 186.255 96.4284 186.378 96.6973C186.506 96.9616 186.569 97.2692 186.569 97.6201C186.569 97.8708 186.51 98.1077 186.392 98.3311C186.273 98.5544 186.102 98.7526 185.879 98.9258C185.656 99.0944 185.384 99.2266 185.065 99.3223C184.751 99.418 184.396 99.4658 183.999 99.4658ZM182.639 98.9873H183.999C184.441 98.9873 184.831 99.0306 185.168 99.1172C185.505 99.1992 185.788 99.3223 186.016 99.4863C186.243 99.6504 186.414 99.8532 186.528 100.095C186.647 100.332 186.706 100.605 186.706 100.915C186.706 101.261 186.635 101.574 186.494 101.852C186.357 102.125 186.161 102.357 185.906 102.549C185.651 102.74 185.346 102.886 184.99 102.986C184.639 103.087 184.25 103.137 183.821 103.137C183.343 103.137 182.878 103.055 182.427 102.891C181.976 102.727 181.604 102.474 181.312 102.132C181.021 101.785 180.875 101.346 180.875 100.812H182.14C182.14 101.036 182.21 101.248 182.352 101.448C182.493 101.649 182.689 101.811 182.939 101.934C183.195 102.057 183.489 102.118 183.821 102.118C184.177 102.118 184.473 102.063 184.71 101.954C184.947 101.845 185.125 101.699 185.243 101.517C185.366 101.334 185.428 101.136 185.428 100.922C185.428 100.644 185.373 100.421 185.264 100.252C185.154 100.083 184.986 99.9603 184.758 99.8828C184.535 99.8008 184.247 99.7598 183.896 99.7598H182.639V98.9873ZM190.589 99.7803L187.786 95.6035H189.311L191.225 98.666H192.701L192.517 99.7803H190.589ZM191.279 99.6504L189.133 103H187.533L190.479 98.7344L191.279 99.6504ZM193.351 95.6035V103H192.086V95.6035H193.351ZM197.664 95.6035L194.861 99.7803H192.934L192.735 98.666H194.219L196.133 95.6035H197.664ZM196.311 103L194.157 99.6504L194.971 98.7344L197.91 103H196.311ZM202.012 103.137C201.497 103.137 201.03 103.05 200.61 102.877C200.196 102.699 199.838 102.451 199.537 102.132C199.241 101.813 199.013 101.435 198.854 100.997C198.694 100.56 198.614 100.081 198.614 99.5615V99.2744C198.614 98.6729 198.703 98.1374 198.881 97.668C199.059 97.194 199.3 96.793 199.605 96.4648C199.911 96.1367 200.257 95.8883 200.645 95.7197C201.032 95.5511 201.433 95.4668 201.848 95.4668C202.376 95.4668 202.832 95.5579 203.215 95.7402C203.602 95.9225 203.919 96.1777 204.165 96.5059C204.411 96.8294 204.593 97.2122 204.712 97.6543C204.83 98.0918 204.89 98.5703 204.89 99.0898V99.6572H199.366V98.625H203.625V98.5293C203.607 98.2012 203.538 97.8822 203.42 97.5723C203.306 97.2624 203.124 97.0072 202.873 96.8066C202.622 96.6061 202.281 96.5059 201.848 96.5059C201.561 96.5059 201.296 96.5674 201.055 96.6904C200.813 96.8089 200.606 96.9867 200.433 97.2236C200.259 97.4606 200.125 97.75 200.029 98.0918C199.934 98.4336 199.886 98.8278 199.886 99.2744V99.5615C199.886 99.9124 199.934 100.243 200.029 100.553C200.13 100.858 200.273 101.127 200.46 101.359C200.651 101.592 200.882 101.774 201.15 101.906C201.424 102.038 201.734 102.104 202.08 102.104C202.527 102.104 202.905 102.013 203.215 101.831C203.525 101.649 203.796 101.405 204.028 101.1L204.794 101.708C204.634 101.95 204.432 102.18 204.186 102.398C203.939 102.617 203.636 102.795 203.276 102.932C202.921 103.068 202.499 103.137 202.012 103.137ZM206.387 102.33C206.387 102.116 206.453 101.936 206.585 101.79C206.722 101.64 206.918 101.564 207.173 101.564C207.428 101.564 207.622 101.64 207.754 101.79C207.891 101.936 207.959 102.116 207.959 102.33C207.959 102.54 207.891 102.717 207.754 102.863C207.622 103.009 207.428 103.082 207.173 103.082C206.918 103.082 206.722 103.009 206.585 102.863C206.453 102.717 206.387 102.54 206.387 102.33Z" fill="black" fill-opacity="0.85"/>
</svg>
