<svg width="328" height="40" viewBox="0 0 328 40" fill="none" xmlns="http://www.w3.org/2000/svg">
<rect x="0.5" y="0.5" width="327" height="39" rx="1.5" fill="#F6FFED"/>
<rect x="0.5" y="0.5" width="327" height="39" rx="1.5" stroke="#B7EB8F"/>
<path d="M25 13C28.8656 13 32 16.1344 32 20C32 23.8656 28.8656 27 25 27C21.1344 27 18 23.8656 18 20C18 16.1344 21.1344 13 25 13ZM27.1895 17.5156C27.0285 17.5156 26.8779 17.5939 26.7842 17.7236L24.3281 21.1299L23.2158 19.5859C23.1221 19.4547 22.9699 19.3779 22.8105 19.3779H22.0781C21.9767 19.3779 21.9175 19.4934 21.9766 19.5762L23.9248 22.2764C23.9707 22.3404 24.0315 22.3926 24.1016 22.4287C24.1718 22.4648 24.2501 22.4844 24.3291 22.4844C24.408 22.4843 24.4855 22.4647 24.5557 22.4287C24.6259 22.3926 24.6864 22.3405 24.7324 22.2764L28.0234 17.7139C28.0827 17.6311 28.0234 17.5156 27.9219 17.5156H27.1895Z" fill="#52C41A"/>
<path d="M46.5293 22.7168L51.4307 15.0469H52.75V25H51.4307V17.3232L46.5293 25H45.2168V15.0469H46.5293V22.7168ZM57.7197 21.4658H56.3594V20.6865H57.6172C57.9681 20.6865 58.2461 20.6432 58.4512 20.5566C58.6562 20.4655 58.8021 20.3402 58.8887 20.1807C58.9753 20.0212 59.0186 19.8343 59.0186 19.6201C59.0186 19.4287 58.9684 19.2487 58.8682 19.0801C58.7725 18.9069 58.6175 18.7679 58.4033 18.6631C58.1891 18.5537 57.902 18.499 57.542 18.499C57.2503 18.499 56.986 18.5514 56.749 18.6562C56.512 18.7565 56.3229 18.8955 56.1816 19.0732C56.0449 19.2464 55.9766 19.4424 55.9766 19.6611H54.7119C54.7119 19.21 54.8395 18.8226 55.0947 18.499C55.3545 18.1709 55.6986 17.918 56.127 17.7402C56.5599 17.5625 57.0316 17.4736 57.542 17.4736C57.9704 17.4736 58.3532 17.5215 58.6904 17.6172C59.0322 17.7083 59.3216 17.8451 59.5586 18.0273C59.7956 18.2051 59.9756 18.4284 60.0986 18.6973C60.2262 18.9616 60.29 19.2692 60.29 19.6201C60.29 19.8708 60.2308 20.1077 60.1123 20.3311C59.9938 20.5544 59.8229 20.7526 59.5996 20.9258C59.3763 21.0944 59.1051 21.2266 58.7861 21.3223C58.4717 21.418 58.1162 21.4658 57.7197 21.4658ZM56.3594 20.9873H57.7197C58.1618 20.9873 58.5514 21.0306 58.8887 21.1172C59.2259 21.1992 59.5085 21.3223 59.7363 21.4863C59.9642 21.6504 60.1351 21.8532 60.249 22.0947C60.3675 22.3317 60.4268 22.6051 60.4268 22.915C60.4268 23.2614 60.3561 23.5736 60.2148 23.8516C60.0781 24.125 59.8822 24.3574 59.627 24.5488C59.3717 24.7402 59.0664 24.8861 58.7109 24.9863C58.36 25.0866 57.9704 25.1367 57.542 25.1367C57.0635 25.1367 56.5986 25.0547 56.1475 24.8906C55.6963 24.7266 55.3249 24.4736 55.0332 24.1318C54.7415 23.7855 54.5957 23.3457 54.5957 22.8125H55.8604C55.8604 23.0358 55.931 23.2477 56.0723 23.4482C56.2135 23.6488 56.4095 23.8105 56.6602 23.9336C56.9154 24.0566 57.2093 24.1182 57.542 24.1182C57.8975 24.1182 58.1937 24.0635 58.4307 23.9541C58.6676 23.8447 58.8454 23.6989 58.9639 23.5166C59.0869 23.3343 59.1484 23.1361 59.1484 22.9219C59.1484 22.6439 59.0938 22.4206 58.9844 22.252C58.875 22.0833 58.7064 21.9603 58.4785 21.8828C58.2552 21.8008 57.9681 21.7598 57.6172 21.7598H56.3594V20.9873ZM66.3193 23.3184L68.835 17.6035H70.0518L66.7568 25H65.8818L62.6006 17.6035H63.8174L66.3193 23.3184ZM63.4482 17.6035V25H62.1836V17.6035H63.4482ZM69.1494 25V17.6035H70.4209V25H69.1494ZM75.5273 25.1367C75.0124 25.1367 74.5452 25.0501 74.126 24.877C73.7113 24.6992 73.3535 24.4508 73.0527 24.1318C72.7565 23.8128 72.5286 23.4346 72.3691 22.9971C72.2096 22.5596 72.1299 22.0811 72.1299 21.5615V21.2744C72.1299 20.6729 72.2188 20.1374 72.3965 19.668C72.5742 19.194 72.8158 18.793 73.1211 18.4648C73.4264 18.1367 73.7728 17.8883 74.1602 17.7197C74.5475 17.5511 74.9486 17.4668 75.3633 17.4668C75.8919 17.4668 76.3477 17.5579 76.7305 17.7402C77.1178 17.9225 77.4346 18.1777 77.6807 18.5059C77.9268 18.8294 78.109 19.2122 78.2275 19.6543C78.346 20.0918 78.4053 20.5703 78.4053 21.0898V21.6572H72.8818V20.625H77.1406V20.5293C77.1224 20.2012 77.054 19.8822 76.9355 19.5723C76.8216 19.2624 76.6393 19.0072 76.3887 18.8066C76.138 18.6061 75.7962 18.5059 75.3633 18.5059C75.0762 18.5059 74.8118 18.5674 74.5703 18.6904C74.3288 18.8089 74.1214 18.9867 73.9482 19.2236C73.7751 19.4606 73.6406 19.75 73.5449 20.0918C73.4492 20.4336 73.4014 20.8278 73.4014 21.2744V21.5615C73.4014 21.9124 73.4492 22.2428 73.5449 22.5527C73.6452 22.8581 73.7887 23.127 73.9756 23.3594C74.167 23.5918 74.3971 23.7741 74.666 23.9062C74.9395 24.0384 75.2493 24.1045 75.5957 24.1045C76.0423 24.1045 76.4206 24.0133 76.7305 23.8311C77.0404 23.6488 77.3115 23.4049 77.5439 23.0996L78.3096 23.708C78.1501 23.9495 77.9473 24.1797 77.7012 24.3984C77.4551 24.6172 77.152 24.7949 76.792 24.9316C76.4365 25.0684 76.015 25.1367 75.5273 25.1367ZM84.8994 20.8096V21.835H80.9893V20.8096H84.8994ZM81.2559 17.6035V25H79.9912V17.6035H81.2559ZM85.9248 17.6035V25H84.6533V17.6035H85.9248ZM91.0312 25.1367C90.5163 25.1367 90.0492 25.0501 89.6299 24.877C89.2152 24.6992 88.8574 24.4508 88.5566 24.1318C88.2604 23.8128 88.0326 23.4346 87.873 22.9971C87.7135 22.5596 87.6338 22.0811 87.6338 21.5615V21.2744C87.6338 20.6729 87.7227 20.1374 87.9004 19.668C88.0781 19.194 88.3197 18.793 88.625 18.4648C88.9303 18.1367 89.2767 17.8883 89.6641 17.7197C90.0514 17.5511 90.4525 17.4668 90.8672 17.4668C91.3958 17.4668 91.8516 17.5579 92.2344 17.7402C92.6217 17.9225 92.9385 18.1777 93.1846 18.5059C93.4307 18.8294 93.613 19.2122 93.7314 19.6543C93.8499 20.0918 93.9092 20.5703 93.9092 21.0898V21.6572H88.3857V20.625H92.6445V20.5293C92.6263 20.2012 92.5579 19.8822 92.4395 19.5723C92.3255 19.2624 92.1432 19.0072 91.8926 18.8066C91.6419 18.6061 91.3001 18.5059 90.8672 18.5059C90.5801 18.5059 90.3158 18.5674 90.0742 18.6904C89.8327 18.8089 89.6253 18.9867 89.4521 19.2236C89.279 19.4606 89.1445 19.75 89.0488 20.0918C88.9531 20.4336 88.9053 20.8278 88.9053 21.2744V21.5615C88.9053 21.9124 88.9531 22.2428 89.0488 22.5527C89.1491 22.8581 89.2926 23.127 89.4795 23.3594C89.6709 23.5918 89.901 23.7741 90.1699 23.9062C90.4434 24.0384 90.7533 24.1045 91.0996 24.1045C91.5462 24.1045 91.9245 24.0133 92.2344 23.8311C92.5443 23.6488 92.8154 23.4049 93.0479 23.0996L93.8135 23.708C93.654 23.9495 93.4512 24.1797 93.2051 24.3984C92.959 24.6172 92.6559 24.7949 92.2959 24.9316C91.9404 25.0684 91.5189 25.1367 91.0312 25.1367ZM100.403 20.8096V21.835H96.4932V20.8096H100.403ZM96.7598 17.6035V25H95.4951V17.6035H96.7598ZM101.429 17.6035V25H100.157V17.6035H101.429ZM104.833 22.9971L108.244 17.6035H109.516V25H108.244V19.6064L104.833 25H103.575V17.6035H104.833V22.9971ZM113.043 21.4727H114.41L112.271 25H110.903L113.043 21.4727ZM114.103 17.6035H117.192V25H115.928V18.6289H114.103C113.743 18.6289 113.449 18.6904 113.221 18.8135C112.993 18.932 112.826 19.0869 112.722 19.2783C112.617 19.4697 112.564 19.668 112.564 19.873C112.564 20.0736 112.612 20.2673 112.708 20.4541C112.804 20.6364 112.954 20.7868 113.159 20.9053C113.364 21.0238 113.629 21.083 113.952 21.083H116.27V22.1221H113.952C113.528 22.1221 113.152 22.0651 112.824 21.9512C112.496 21.8372 112.218 21.68 111.99 21.4795C111.762 21.2744 111.589 21.0352 111.471 20.7617C111.352 20.4837 111.293 20.1829 111.293 19.8594C111.293 19.5358 111.354 19.2373 111.478 18.9639C111.605 18.6904 111.787 18.4512 112.024 18.2461C112.266 18.041 112.56 17.8838 112.906 17.7744C113.257 17.6605 113.656 17.6035 114.103 17.6035ZM125.662 24.0977C125.963 24.0977 126.241 24.0361 126.496 23.9131C126.751 23.79 126.961 23.6214 127.125 23.4072C127.289 23.1885 127.382 22.9401 127.405 22.6621H128.608C128.586 23.0996 128.438 23.5075 128.164 23.8857C127.895 24.2594 127.542 24.5625 127.104 24.7949C126.667 25.0228 126.186 25.1367 125.662 25.1367C125.106 25.1367 124.621 25.0387 124.206 24.8428C123.796 24.6468 123.454 24.3779 123.181 24.0361C122.912 23.6943 122.709 23.3024 122.572 22.8604C122.44 22.4137 122.374 21.9421 122.374 21.4453V21.1582C122.374 20.6615 122.44 20.1921 122.572 19.75C122.709 19.3034 122.912 18.9092 123.181 18.5674C123.454 18.2256 123.796 17.9567 124.206 17.7607C124.621 17.5648 125.106 17.4668 125.662 17.4668C126.241 17.4668 126.747 17.5853 127.18 17.8223C127.613 18.0547 127.952 18.3737 128.198 18.7793C128.449 19.1803 128.586 19.6361 128.608 20.1465H127.405C127.382 19.8411 127.296 19.5654 127.146 19.3193C127 19.0732 126.799 18.8773 126.544 18.7314C126.293 18.5811 125.999 18.5059 125.662 18.5059C125.275 18.5059 124.949 18.5833 124.685 18.7383C124.425 18.8887 124.217 19.0938 124.062 19.3535C123.912 19.6087 123.803 19.8936 123.734 20.208C123.671 20.5179 123.639 20.8346 123.639 21.1582V21.4453C123.639 21.7689 123.671 22.0879 123.734 22.4023C123.798 22.7168 123.905 23.0016 124.056 23.2568C124.211 23.512 124.418 23.7171 124.678 23.8721C124.942 24.0225 125.27 24.0977 125.662 24.0977ZM129.695 21.3838V21.2266C129.695 20.6934 129.773 20.1989 129.928 19.7432C130.083 19.2829 130.306 18.8841 130.598 18.5469C130.889 18.2051 131.243 17.9408 131.657 17.7539C132.072 17.5625 132.537 17.4668 133.052 17.4668C133.571 17.4668 134.038 17.5625 134.453 17.7539C134.872 17.9408 135.228 18.2051 135.52 18.5469C135.816 18.8841 136.041 19.2829 136.196 19.7432C136.351 20.1989 136.429 20.6934 136.429 21.2266V21.3838C136.429 21.917 136.351 22.4115 136.196 22.8672C136.041 23.3229 135.816 23.7217 135.52 24.0635C135.228 24.4007 134.875 24.665 134.46 24.8564C134.05 25.0433 133.585 25.1367 133.065 25.1367C132.546 25.1367 132.079 25.0433 131.664 24.8564C131.249 24.665 130.894 24.4007 130.598 24.0635C130.306 23.7217 130.083 23.3229 129.928 22.8672C129.773 22.4115 129.695 21.917 129.695 21.3838ZM130.96 21.2266V21.3838C130.96 21.7529 131.003 22.1016 131.09 22.4297C131.176 22.7533 131.306 23.0404 131.479 23.291C131.657 23.5417 131.878 23.7399 132.143 23.8857C132.407 24.027 132.715 24.0977 133.065 24.0977C133.412 24.0977 133.715 24.027 133.975 23.8857C134.239 23.7399 134.458 23.5417 134.631 23.291C134.804 23.0404 134.934 22.7533 135.021 22.4297C135.112 22.1016 135.157 21.7529 135.157 21.3838V21.2266C135.157 20.862 135.112 20.5179 135.021 20.1943C134.934 19.8662 134.802 19.5768 134.624 19.3262C134.451 19.071 134.232 18.8704 133.968 18.7246C133.708 18.5788 133.403 18.5059 133.052 18.5059C132.705 18.5059 132.4 18.5788 132.136 18.7246C131.876 18.8704 131.657 19.071 131.479 19.3262C131.306 19.5768 131.176 19.8662 131.09 20.1943C131.003 20.5179 130.96 20.862 130.96 21.2266ZM138.719 17.6035L140.339 20.2969L141.979 17.6035H143.463L141.043 21.2539L143.538 25H142.075L140.366 22.2246L138.657 25H137.188L139.676 21.2539L137.263 17.6035H138.719ZM146.074 19.0254V27.8438H144.803V17.6035H145.965L146.074 19.0254ZM151.058 21.2402V21.3838C151.058 21.9215 150.994 22.4206 150.866 22.8809C150.739 23.3366 150.552 23.7331 150.306 24.0703C150.064 24.4076 149.766 24.6696 149.41 24.8564C149.055 25.0433 148.647 25.1367 148.187 25.1367C147.717 25.1367 147.302 25.0592 146.942 24.9043C146.582 24.7493 146.277 24.5238 146.026 24.2275C145.776 23.9313 145.575 23.5758 145.425 23.1611C145.279 22.7464 145.179 22.2793 145.124 21.7598V20.9941C145.179 20.4473 145.281 19.9574 145.432 19.5244C145.582 19.0915 145.78 18.7223 146.026 18.417C146.277 18.1071 146.58 17.8724 146.936 17.7129C147.291 17.5488 147.701 17.4668 148.166 17.4668C148.631 17.4668 149.043 17.5579 149.403 17.7402C149.763 17.918 150.066 18.1732 150.312 18.5059C150.559 18.8385 150.743 19.2373 150.866 19.7021C150.994 20.1624 151.058 20.6751 151.058 21.2402ZM149.786 21.3838V21.2402C149.786 20.8711 149.747 20.5247 149.67 20.2012C149.592 19.873 149.472 19.5859 149.308 19.3398C149.148 19.0892 148.943 18.8932 148.692 18.752C148.442 18.6061 148.143 18.5332 147.797 18.5332C147.478 18.5332 147.2 18.5879 146.963 18.6973C146.73 18.8066 146.532 18.9548 146.368 19.1416C146.204 19.3239 146.07 19.5335 145.965 19.7705C145.865 20.0029 145.789 20.2445 145.739 20.4951V22.2656C145.83 22.5846 145.958 22.8854 146.122 23.168C146.286 23.446 146.505 23.6715 146.778 23.8447C147.052 24.0133 147.396 24.0977 147.811 24.0977C148.152 24.0977 148.446 24.027 148.692 23.8857C148.943 23.7399 149.148 23.5417 149.308 23.291C149.472 23.0404 149.592 22.7533 149.67 22.4297C149.747 22.1016 149.786 21.7529 149.786 21.3838ZM157.032 23.7354V19.9277C157.032 19.6361 156.973 19.3831 156.854 19.1689C156.741 18.9502 156.567 18.7816 156.335 18.6631C156.103 18.5446 155.815 18.4854 155.474 18.4854C155.155 18.4854 154.874 18.54 154.633 18.6494C154.396 18.7588 154.209 18.9023 154.072 19.0801C153.94 19.2578 153.874 19.4492 153.874 19.6543H152.609C152.609 19.39 152.678 19.1279 152.814 18.8682C152.951 18.6084 153.147 18.3737 153.402 18.1641C153.662 17.9499 153.972 17.7812 154.332 17.6582C154.697 17.5306 155.102 17.4668 155.549 17.4668C156.087 17.4668 156.561 17.5579 156.971 17.7402C157.385 17.9225 157.709 18.1982 157.941 18.5674C158.178 18.932 158.297 19.39 158.297 19.9414V23.3867C158.297 23.6328 158.317 23.8949 158.358 24.1729C158.404 24.4508 158.47 24.6901 158.557 24.8906V25H157.237C157.174 24.8542 157.123 24.6605 157.087 24.4189C157.05 24.1729 157.032 23.945 157.032 23.7354ZM157.251 20.5156L157.265 21.4043H155.986C155.626 21.4043 155.305 21.4339 155.022 21.4932C154.74 21.5479 154.503 21.6322 154.312 21.7461C154.12 21.86 153.974 22.0036 153.874 22.1768C153.774 22.3454 153.724 22.5436 153.724 22.7715C153.724 23.0039 153.776 23.2158 153.881 23.4072C153.986 23.5986 154.143 23.7513 154.353 23.8652C154.567 23.9746 154.829 24.0293 155.139 24.0293C155.526 24.0293 155.868 23.9473 156.164 23.7832C156.46 23.6191 156.695 23.4186 156.868 23.1816C157.046 22.9447 157.142 22.7145 157.155 22.4912L157.695 23.0996C157.663 23.291 157.577 23.5029 157.436 23.7354C157.294 23.9678 157.105 24.1911 156.868 24.4053C156.636 24.6149 156.358 24.7904 156.034 24.9316C155.715 25.0684 155.355 25.1367 154.954 25.1367C154.453 25.1367 154.013 25.0387 153.635 24.8428C153.261 24.6468 152.969 24.3848 152.76 24.0566C152.555 23.724 152.452 23.3525 152.452 22.9424C152.452 22.5459 152.53 22.1973 152.685 21.8965C152.84 21.5911 153.063 21.3382 153.354 21.1377C153.646 20.9326 153.997 20.7777 154.407 20.6729C154.817 20.568 155.275 20.5156 155.781 20.5156H157.251ZM165.304 20.8096V21.835H161.394V20.8096H165.304ZM161.66 17.6035V25H160.396V17.6035H161.66ZM166.329 17.6035V25H165.058V17.6035H166.329ZM171.436 25.1367C170.921 25.1367 170.453 25.0501 170.034 24.877C169.619 24.6992 169.262 24.4508 168.961 24.1318C168.665 23.8128 168.437 23.4346 168.277 22.9971C168.118 22.5596 168.038 22.0811 168.038 21.5615V21.2744C168.038 20.6729 168.127 20.1374 168.305 19.668C168.482 19.194 168.724 18.793 169.029 18.4648C169.335 18.1367 169.681 17.8883 170.068 17.7197C170.456 17.5511 170.857 17.4668 171.271 17.4668C171.8 17.4668 172.256 17.5579 172.639 17.7402C173.026 17.9225 173.343 18.1777 173.589 18.5059C173.835 18.8294 174.017 19.2122 174.136 19.6543C174.254 20.0918 174.313 20.5703 174.313 21.0898V21.6572H168.79V20.625H173.049V20.5293C173.031 20.2012 172.962 19.8822 172.844 19.5723C172.73 19.2624 172.548 19.0072 172.297 18.8066C172.046 18.6061 171.704 18.5059 171.271 18.5059C170.984 18.5059 170.72 18.5674 170.479 18.6904C170.237 18.8089 170.03 18.9867 169.856 19.2236C169.683 19.4606 169.549 19.75 169.453 20.0918C169.357 20.4336 169.31 20.8278 169.31 21.2744V21.5615C169.31 21.9124 169.357 22.2428 169.453 22.5527C169.553 22.8581 169.697 23.127 169.884 23.3594C170.075 23.5918 170.305 23.7741 170.574 23.9062C170.848 24.0384 171.158 24.1045 171.504 24.1045C171.951 24.1045 172.329 24.0133 172.639 23.8311C172.949 23.6488 173.22 23.4049 173.452 23.0996L174.218 23.708C174.058 23.9495 173.855 24.1797 173.609 24.3984C173.363 24.6172 173.06 24.7949 172.7 24.9316C172.345 25.0684 171.923 25.1367 171.436 25.1367ZM180.808 20.8096V21.835H176.897V20.8096H180.808ZM177.164 17.6035V25H175.899V17.6035H177.164ZM181.833 17.6035V25H180.562V17.6035H181.833ZM184.909 20.1465H187.131C187.728 20.1465 188.231 20.2513 188.642 20.4609C189.052 20.666 189.362 20.9508 189.571 21.3154C189.785 21.6755 189.893 22.0856 189.893 22.5459C189.893 22.8877 189.833 23.209 189.715 23.5098C189.596 23.806 189.419 24.0658 189.182 24.2891C188.949 24.5124 188.66 24.6878 188.313 24.8154C187.972 24.9385 187.577 25 187.131 25H183.986V17.6035H185.251V23.9609H187.131C187.495 23.9609 187.787 23.8949 188.006 23.7627C188.225 23.6305 188.382 23.4596 188.478 23.25C188.573 23.0404 188.621 22.8216 188.621 22.5938C188.621 22.3704 188.573 22.1517 188.478 21.9375C188.382 21.7233 188.225 21.5456 188.006 21.4043C187.787 21.2585 187.495 21.1855 187.131 21.1855H184.909V20.1465ZM192.524 17.6035V25H191.26V17.6035H192.524Z" fill="black" fill-opacity="0.85"/>
</svg>
