<svg width="155" height="26" viewBox="0 0 155 26" fill="none" xmlns="http://www.w3.org/2000/svg">
<rect width="155.003" height="26" rx="8" fill="#F9F1E6"/>
<rect x="8" y="9.99927" width="6.0025" height="6.0015" rx="3.00075" fill="white" fill-opacity="0.01"/>
<g clip-path="url(#clip0_20_3850)">
<rect x="8" y="9.99927" width="6.0025" height="6.0015" rx="3.00075" fill="#FAAD14"/>
</g>
<path d="M26.8355 8.04688V18H25.5367V8.04688H26.8355ZM30.0347 8.04688V9.12695H22.3443V8.04688H30.0347ZM31.8326 12.0254V20.8438H30.5611V10.6035H31.7232L31.8326 12.0254ZM36.816 14.2402V14.3838C36.816 14.9215 36.7522 15.4206 36.6246 15.8809C36.497 16.3366 36.3101 16.7331 36.064 17.0703C35.8225 17.4076 35.524 17.6696 35.1685 17.8564C34.813 18.0433 34.4052 18.1367 33.9449 18.1367C33.4755 18.1367 33.0608 18.0592 32.7007 17.9043C32.3407 17.7493 32.0354 17.5238 31.7847 17.2275C31.5341 16.9313 31.3336 16.5758 31.1832 16.1611C31.0373 15.7464 30.9371 15.2793 30.8824 14.7598V13.9941C30.9371 13.4473 31.0396 12.9574 31.19 12.5244C31.3404 12.0915 31.5386 11.7223 31.7847 11.417C32.0354 11.1071 32.3384 10.8724 32.6939 10.7129C33.0494 10.5488 33.4595 10.4668 33.9244 10.4668C34.3892 10.4668 34.8017 10.5579 35.1617 10.7402C35.5217 10.918 35.8248 11.1732 36.0709 11.5059C36.317 11.8385 36.5015 12.2373 36.6246 12.7021C36.7522 13.1624 36.816 13.6751 36.816 14.2402ZM35.5445 14.3838V14.2402C35.5445 13.8711 35.5058 13.5247 35.4283 13.2012C35.3508 12.873 35.23 12.5859 35.066 12.3398C34.9065 12.0892 34.7014 11.8932 34.4507 11.752C34.2001 11.6061 33.9016 11.5332 33.5552 11.5332C33.2362 11.5332 32.9582 11.5879 32.7213 11.6973C32.4888 11.8066 32.2906 11.9548 32.1265 12.1416C31.9625 12.3239 31.828 12.5335 31.7232 12.7705C31.6229 13.0029 31.5477 13.2445 31.4976 13.4951V15.2656C31.5888 15.5846 31.7164 15.8854 31.8804 16.168C32.0445 16.446 32.2632 16.6715 32.5367 16.8447C32.8101 17.0133 33.1542 17.0977 33.5689 17.0977C33.9107 17.0977 34.2047 17.027 34.4507 16.8857C34.7014 16.7399 34.9065 16.5417 35.066 16.291C35.23 16.0404 35.3508 15.7533 35.4283 15.4297C35.5058 15.1016 35.5445 14.7529 35.5445 14.3838ZM41.4986 18.1367C40.9836 18.1367 40.5165 18.0501 40.0972 17.877C39.6825 17.6992 39.3248 17.4508 39.024 17.1318C38.7278 16.8128 38.4999 16.4346 38.3404 15.9971C38.1809 15.5596 38.1011 15.0811 38.1011 14.5615V14.2744C38.1011 13.6729 38.19 13.1374 38.3677 12.668C38.5455 12.194 38.787 11.793 39.0923 11.4648C39.3977 11.1367 39.744 10.8883 40.1314 10.7197C40.5188 10.5511 40.9198 10.4668 41.3345 10.4668C41.8632 10.4668 42.3189 10.5579 42.7017 10.7402C43.0891 10.9225 43.4058 11.1777 43.6519 11.5059C43.898 11.8294 44.0803 12.2122 44.1988 12.6543C44.3173 13.0918 44.3765 13.5703 44.3765 14.0898V14.6572H38.8531V13.625H43.1119V13.5293C43.0936 13.2012 43.0253 12.8822 42.9068 12.5723C42.7929 12.2624 42.6106 12.0072 42.3599 11.8066C42.1093 11.6061 41.7675 11.5059 41.3345 11.5059C41.0474 11.5059 40.7831 11.5674 40.5416 11.6904C40.3 11.8089 40.0927 11.9867 39.9195 12.2236C39.7463 12.4606 39.6119 12.75 39.5162 13.0918C39.4205 13.4336 39.3726 13.8278 39.3726 14.2744V14.5615C39.3726 14.9124 39.4205 15.2428 39.5162 15.5527C39.6164 15.8581 39.76 16.127 39.9468 16.3594C40.1382 16.5918 40.3684 16.7741 40.6373 16.9062C40.9107 17.0384 41.2206 17.1045 41.567 17.1045C42.0136 17.1045 42.3918 17.0133 42.7017 16.8311C43.0116 16.6488 43.2828 16.4049 43.5152 16.0996L44.2808 16.708C44.1213 16.9495 43.9185 17.1797 43.6724 17.3984C43.4263 17.6172 43.1233 17.7949 42.7632 17.9316C42.4078 18.0684 41.9862 18.1367 41.4986 18.1367ZM50.5972 7.38379H51.6363C51.6363 7.8304 51.5679 8.18587 51.4312 8.4502C51.2945 8.70996 51.1076 8.91048 50.8707 9.05176C50.6382 9.19303 50.3739 9.30013 50.0777 9.37305C49.786 9.44596 49.483 9.5166 49.1685 9.58496C48.7766 9.66699 48.412 9.79688 48.0748 9.97461C47.7421 10.1478 47.455 10.3939 47.2134 10.7129C46.9765 11.0319 46.801 11.4466 46.6871 11.957C46.5777 12.4674 46.5481 13.0986 46.5982 13.8506V14.4795H45.5591V13.8506C45.5591 13.0075 45.6389 12.2715 45.7984 11.6426C45.9625 11.0137 46.1926 10.4827 46.4888 10.0498C46.7851 9.61686 47.136 9.27279 47.5416 9.01758C47.9517 8.76237 48.4029 8.58691 48.8951 8.49121C49.2505 8.42285 49.5559 8.34993 49.8111 8.27246C50.0663 8.19043 50.26 8.08105 50.3922 7.94434C50.5289 7.80762 50.5972 7.62077 50.5972 7.38379ZM49.1002 11.0273C49.5832 11.0273 50.0139 11.1117 50.3922 11.2803C50.7704 11.4489 51.0917 11.6836 51.356 11.9844C51.6203 12.2852 51.8209 12.6406 51.9576 13.0508C52.0989 13.4564 52.1695 13.8984 52.1695 14.377V14.5273C52.1695 15.0423 52.0943 15.5208 51.9439 15.9629C51.7981 16.4004 51.5816 16.7832 51.2945 17.1113C51.0119 17.4349 50.6656 17.6878 50.2554 17.8701C49.8498 18.0524 49.3873 18.1436 48.8677 18.1436C48.3482 18.1436 47.8834 18.0524 47.4732 17.8701C47.0676 17.6878 46.7213 17.4349 46.4341 17.1113C46.147 16.7832 45.9283 16.4004 45.7779 15.9629C45.6321 15.5208 45.5591 15.0423 45.5591 14.5273V14.377C45.5591 14.263 45.5797 14.1514 45.6207 14.042C45.6617 13.9326 45.7118 13.821 45.7711 13.707C45.8349 13.5931 45.8918 13.4723 45.942 13.3447C46.1106 12.9346 46.3407 12.554 46.6324 12.2031C46.9286 11.8522 47.2818 11.5697 47.692 11.3555C48.1067 11.1367 48.5761 11.0273 49.1002 11.0273ZM48.8541 12.0596C48.3892 12.0596 48.0064 12.1667 47.7056 12.3809C47.4094 12.5951 47.1884 12.8799 47.0425 13.2354C46.8967 13.5863 46.8238 13.9668 46.8238 14.377V14.5273C46.8238 14.8737 46.8648 15.2018 46.9468 15.5117C47.0289 15.8216 47.1519 16.0973 47.316 16.3389C47.4846 16.5758 47.6965 16.7627 47.9517 16.8994C48.2115 17.0361 48.5168 17.1045 48.8677 17.1045C49.2186 17.1045 49.5217 17.0361 49.7769 16.8994C50.0321 16.7627 50.2418 16.5758 50.4058 16.3389C50.5699 16.0973 50.6929 15.8216 50.775 15.5117C50.857 15.2018 50.898 14.8737 50.898 14.5273V14.377C50.898 14.0671 50.857 13.7731 50.775 13.4951C50.6929 13.2171 50.5676 12.971 50.399 12.7568C50.2349 12.5426 50.023 12.374 49.7632 12.251C49.508 12.1234 49.205 12.0596 48.8541 12.0596ZM55.6832 17.2344L57.7408 10.6035H59.0943L56.1275 19.1416C56.0591 19.3239 55.968 19.5199 55.8541 19.7295C55.7447 19.9437 55.6034 20.1465 55.4302 20.3379C55.2571 20.5293 55.0474 20.6842 54.8013 20.8027C54.5598 20.9258 54.2704 20.9873 53.9332 20.9873C53.8329 20.9873 53.7053 20.9736 53.5504 20.9463C53.3954 20.9189 53.286 20.8962 53.2222 20.8779L53.2154 19.8525C53.2519 19.8571 53.3088 19.8617 53.3863 19.8662C53.4683 19.8753 53.5253 19.8799 53.5572 19.8799C53.8443 19.8799 54.0881 19.8411 54.2886 19.7637C54.4892 19.6908 54.6578 19.5654 54.7945 19.3877C54.9358 19.2145 55.0565 18.9753 55.1568 18.6699L55.6832 17.2344ZM54.1724 10.6035L56.0933 16.3457L56.4214 17.6787L55.5123 18.1436L52.7916 10.6035H54.1724ZM63.2095 18.1367C62.6946 18.1367 62.2274 18.0501 61.8082 17.877C61.3935 17.6992 61.0357 17.4508 60.7349 17.1318C60.4387 16.8128 60.2108 16.4346 60.0513 15.9971C59.8918 15.5596 59.8121 15.0811 59.8121 14.5615V14.2744C59.8121 13.6729 59.9009 13.1374 60.0787 12.668C60.2564 12.194 60.4979 11.793 60.8033 11.4648C61.1086 11.1367 61.455 10.8883 61.8423 10.7197C62.2297 10.5511 62.6308 10.4668 63.0455 10.4668C63.5741 10.4668 64.0298 10.5579 64.4127 10.7402C64.8 10.9225 65.1168 11.1777 65.3629 11.5059C65.6089 11.8294 65.7912 12.2122 65.9097 12.6543C66.0282 13.0918 66.0875 13.5703 66.0875 14.0898V14.6572H60.564V13.625H64.8228V13.5293C64.8046 13.2012 64.7362 12.8822 64.6177 12.5723C64.5038 12.2624 64.3215 12.0072 64.0709 11.8066C63.8202 11.6061 63.4784 11.5059 63.0455 11.5059C62.7584 11.5059 62.494 11.5674 62.2525 11.6904C62.011 11.8089 61.8036 11.9867 61.6304 12.2236C61.4573 12.4606 61.3228 12.75 61.2271 13.0918C61.1314 13.4336 61.0836 13.8278 61.0836 14.2744V14.5615C61.0836 14.9124 61.1314 15.2428 61.2271 15.5527C61.3274 15.8581 61.4709 16.127 61.6578 16.3594C61.8492 16.5918 62.0793 16.7741 62.3482 16.9062C62.6216 17.0384 62.9315 17.1045 63.2779 17.1045C63.7245 17.1045 64.1028 17.0133 64.4127 16.8311C64.7226 16.6488 64.9937 16.4049 65.2261 16.0996L65.9918 16.708C65.8323 16.9495 65.6295 17.1797 65.3834 17.3984C65.1373 17.6172 64.8342 17.7949 64.4742 17.9316C64.1187 18.0684 63.6972 18.1367 63.2095 18.1367ZM70.4966 10.6035V18H69.2252V10.6035H70.4966ZM72.9781 10.6035V11.6289H66.7916V10.6035H72.9781ZM79.0279 10.6035H80.2925L80.1832 13.3721C80.1558 14.0739 80.0761 14.68 79.9439 15.1904C79.8117 15.7008 79.6431 16.1361 79.438 16.4961C79.233 16.8516 79.0028 17.1501 78.7476 17.3916C78.497 17.6331 78.2372 17.8359 77.9683 18H77.3394L77.3736 16.9678L77.6334 16.9609C77.7838 16.7832 77.9296 16.6009 78.0709 16.4141C78.2121 16.2227 78.342 15.9971 78.4605 15.7373C78.579 15.473 78.677 15.1517 78.7545 14.7734C78.8365 14.3906 78.8889 13.9235 78.9117 13.3721L79.0279 10.6035ZM79.3423 10.6035H83.7925V18H82.5279V11.7725H79.3423V10.6035ZM77.0523 16.9609H84.7427V20.1807H83.4781V18H78.317V20.1807H77.0455L77.0523 16.9609ZM85.8091 14.3838V14.2266C85.8091 13.6934 85.8866 13.1989 86.0416 12.7432C86.1965 12.2829 86.4198 11.8841 86.7115 11.5469C87.0032 11.2051 87.3563 10.9408 87.7711 10.7539C88.1858 10.5625 88.6506 10.4668 89.1656 10.4668C89.6851 10.4668 90.1522 10.5625 90.567 10.7539C90.9862 10.9408 91.3417 11.2051 91.6334 11.5469C91.9296 11.8841 92.1552 12.2829 92.3101 12.7432C92.4651 13.1989 92.5425 13.6934 92.5425 14.2266V14.3838C92.5425 14.917 92.4651 15.4115 92.3101 15.8672C92.1552 16.3229 91.9296 16.7217 91.6334 17.0635C91.3417 17.4007 90.9885 17.665 90.5738 17.8564C90.1636 18.0433 89.6988 18.1367 89.1793 18.1367C88.6597 18.1367 88.1926 18.0433 87.7779 17.8564C87.3632 17.665 87.0077 17.4007 86.7115 17.0635C86.4198 16.7217 86.1965 16.3229 86.0416 15.8672C85.8866 15.4115 85.8091 14.917 85.8091 14.3838ZM87.0738 14.2266V14.3838C87.0738 14.7529 87.1171 15.1016 87.2037 15.4297C87.2903 15.7533 87.4201 16.0404 87.5933 16.291C87.7711 16.5417 87.9921 16.7399 88.2564 16.8857C88.5207 17.027 88.8283 17.0977 89.1793 17.0977C89.5256 17.0977 89.8287 17.027 90.0884 16.8857C90.3528 16.7399 90.5715 16.5417 90.7447 16.291C90.9179 16.0404 91.0477 15.7533 91.1343 15.4297C91.2255 15.1016 91.2711 14.7529 91.2711 14.3838V14.2266C91.2711 13.862 91.2255 13.5179 91.1343 13.1943C91.0477 12.8662 90.9156 12.5768 90.7379 12.3262C90.5647 12.071 90.3459 11.8704 90.0816 11.7246C89.8218 11.5788 89.5165 11.5059 89.1656 11.5059C88.8192 11.5059 88.5139 11.5788 88.2496 11.7246C87.9898 11.8704 87.7711 12.071 87.5933 12.3262C87.4201 12.5768 87.2903 12.8662 87.2037 13.1943C87.1171 13.5179 87.0738 13.862 87.0738 14.2266ZM95.3931 12.0254V20.8438H94.1216V10.6035H95.2838L95.3931 12.0254ZM100.377 14.2402V14.3838C100.377 14.9215 100.313 15.4206 100.185 15.8809C100.058 16.3366 99.8707 16.7331 99.6246 17.0703C99.383 17.4076 99.0845 17.6696 98.7291 17.8564C98.3736 18.0433 97.9657 18.1367 97.5054 18.1367C97.036 18.1367 96.6213 18.0592 96.2613 17.9043C95.9013 17.7493 95.5959 17.5238 95.3453 17.2275C95.0946 16.9313 94.8941 16.5758 94.7437 16.1611C94.5979 15.7464 94.4976 15.2793 94.4429 14.7598V13.9941C94.4976 13.4473 94.6002 12.9574 94.7505 12.5244C94.9009 12.0915 95.0992 11.7223 95.3453 11.417C95.5959 11.1071 95.899 10.8724 96.2545 10.7129C96.6099 10.5488 97.0201 10.4668 97.4849 10.4668C97.9498 10.4668 98.3622 10.5579 98.7222 10.7402C99.0823 10.918 99.3853 11.1732 99.6314 11.5059C99.8775 11.8385 100.062 12.2373 100.185 12.7021C100.313 13.1624 100.377 13.6751 100.377 14.2402ZM99.105 14.3838V14.2402C99.105 13.8711 99.0663 13.5247 98.9888 13.2012C98.9114 12.873 98.7906 12.5859 98.6265 12.3398C98.467 12.0892 98.2619 11.8932 98.0113 11.752C97.7606 11.6061 97.4621 11.5332 97.1158 11.5332C96.7968 11.5332 96.5188 11.5879 96.2818 11.6973C96.0494 11.8066 95.8511 11.9548 95.6871 12.1416C95.523 12.3239 95.3886 12.5335 95.2838 12.7705C95.1835 13.0029 95.1083 13.2445 95.0582 13.4951V15.2656C95.1493 15.5846 95.2769 15.8854 95.441 16.168C95.605 16.446 95.8238 16.6715 96.0972 16.8447C96.3707 17.0133 96.7147 17.0977 97.1295 17.0977C97.4713 17.0977 97.7652 17.027 98.0113 16.8857C98.2619 16.7399 98.467 16.5417 98.6265 16.291C98.7906 16.0404 98.9114 15.7533 98.9888 15.4297C99.0663 15.1016 99.105 14.7529 99.105 14.3838ZM106.351 16.7354V12.9277C106.351 12.6361 106.292 12.3831 106.173 12.1689C106.059 11.9502 105.886 11.7816 105.654 11.6631C105.421 11.5446 105.134 11.4854 104.793 11.4854C104.474 11.4854 104.193 11.54 103.952 11.6494C103.715 11.7588 103.528 11.9023 103.391 12.0801C103.259 12.2578 103.193 12.4492 103.193 12.6543H101.928C101.928 12.39 101.997 12.1279 102.133 11.8682C102.27 11.6084 102.466 11.3737 102.721 11.1641C102.981 10.9499 103.291 10.7812 103.651 10.6582C104.016 10.5306 104.421 10.4668 104.868 10.4668C105.405 10.4668 105.879 10.5579 106.29 10.7402C106.704 10.9225 107.028 11.1982 107.26 11.5674C107.497 11.932 107.616 12.39 107.616 12.9414V16.3867C107.616 16.6328 107.636 16.8949 107.677 17.1729C107.723 17.4508 107.789 17.6901 107.876 17.8906V18H106.556C106.492 17.8542 106.442 17.6605 106.406 17.4189C106.369 17.1729 106.351 16.945 106.351 16.7354ZM106.57 13.5156L106.584 14.4043H105.305C104.945 14.4043 104.624 14.4339 104.341 14.4932C104.059 14.5479 103.822 14.6322 103.63 14.7461C103.439 14.86 103.293 15.0036 103.193 15.1768C103.093 15.3454 103.043 15.5436 103.043 15.7715C103.043 16.0039 103.095 16.2158 103.2 16.4072C103.305 16.5986 103.462 16.7513 103.671 16.8652C103.886 16.9746 104.148 17.0293 104.458 17.0293C104.845 17.0293 105.187 16.9473 105.483 16.7832C105.779 16.6191 106.014 16.4186 106.187 16.1816C106.365 15.9447 106.461 15.7145 106.474 15.4912L107.014 16.0996C106.982 16.291 106.896 16.5029 106.754 16.7354C106.613 16.9678 106.424 17.1911 106.187 17.4053C105.955 17.6149 105.677 17.7904 105.353 17.9316C105.034 18.0684 104.674 18.1367 104.273 18.1367C103.772 18.1367 103.332 18.0387 102.954 17.8428C102.58 17.6468 102.288 17.3848 102.079 17.0566C101.874 16.724 101.771 16.3525 101.771 15.9424C101.771 15.5459 101.849 15.1973 102.003 14.8965C102.158 14.5911 102.382 14.3382 102.673 14.1377C102.965 13.9326 103.316 13.7777 103.726 13.6729C104.136 13.568 104.594 13.5156 105.1 13.5156H106.57ZM114.349 7.38379H115.388C115.388 7.8304 115.32 8.18587 115.183 8.4502C115.046 8.70996 114.86 8.91048 114.623 9.05176C114.39 9.19303 114.126 9.30013 113.83 9.37305C113.538 9.44596 113.235 9.5166 112.92 9.58496C112.529 9.66699 112.164 9.79688 111.827 9.97461C111.494 10.1478 111.207 10.3939 110.965 10.7129C110.728 11.0319 110.553 11.4466 110.439 11.957C110.33 12.4674 110.3 13.0986 110.35 13.8506V14.4795H109.311V13.8506C109.311 13.0075 109.391 12.2715 109.55 11.6426C109.714 11.0137 109.945 10.4827 110.241 10.0498C110.537 9.61686 110.888 9.27279 111.294 9.01758C111.704 8.76237 112.155 8.58691 112.647 8.49121C113.003 8.42285 113.308 8.34993 113.563 8.27246C113.818 8.19043 114.012 8.08105 114.144 7.94434C114.281 7.80762 114.349 7.62077 114.349 7.38379ZM112.852 11.0273C113.335 11.0273 113.766 11.1117 114.144 11.2803C114.522 11.4489 114.844 11.6836 115.108 11.9844C115.372 12.2852 115.573 12.6406 115.71 13.0508C115.851 13.4564 115.921 13.8984 115.921 14.377V14.5273C115.921 15.0423 115.846 15.5208 115.696 15.9629C115.55 16.4004 115.334 16.7832 115.046 17.1113C114.764 17.4349 114.418 17.6878 114.007 17.8701C113.602 18.0524 113.139 18.1436 112.62 18.1436C112.1 18.1436 111.635 18.0524 111.225 17.8701C110.82 17.6878 110.473 17.4349 110.186 17.1113C109.899 16.7832 109.68 16.4004 109.53 15.9629C109.384 15.5208 109.311 15.0423 109.311 14.5273V14.377C109.311 14.263 109.332 14.1514 109.373 14.042C109.414 13.9326 109.464 13.821 109.523 13.707C109.587 13.5931 109.644 13.4723 109.694 13.3447C109.863 12.9346 110.093 12.554 110.384 12.2031C110.681 11.8522 111.034 11.5697 111.444 11.3555C111.859 11.1367 112.328 11.0273 112.852 11.0273ZM112.606 12.0596C112.141 12.0596 111.758 12.1667 111.458 12.3809C111.161 12.5951 110.94 12.8799 110.794 13.2354C110.649 13.5863 110.576 13.9668 110.576 14.377V14.5273C110.576 14.8737 110.617 15.2018 110.699 15.5117C110.781 15.8216 110.904 16.0973 111.068 16.3389C111.237 16.5758 111.448 16.7627 111.704 16.8994C111.963 17.0361 112.269 17.1045 112.62 17.1045C112.971 17.1045 113.274 17.0361 113.529 16.8994C113.784 16.7627 113.994 16.5758 114.158 16.3389C114.322 16.0973 114.445 15.8216 114.527 15.5117C114.609 15.2018 114.65 14.8737 114.65 14.5273V14.377C114.65 14.0671 114.609 13.7731 114.527 13.4951C114.445 13.2171 114.32 12.971 114.151 12.7568C113.987 12.5426 113.775 12.374 113.515 12.251C113.26 12.1234 112.957 12.0596 112.606 12.0596ZM117.022 14.3838V14.2266C117.022 13.6934 117.1 13.1989 117.254 12.7432C117.409 12.2829 117.633 11.8841 117.924 11.5469C118.216 11.2051 118.569 10.9408 118.984 10.7539C119.399 10.5625 119.864 10.4668 120.378 10.4668C120.898 10.4668 121.365 10.5625 121.78 10.7539C122.199 10.9408 122.555 11.2051 122.846 11.5469C123.142 11.8841 123.368 12.2829 123.523 12.7432C123.678 13.1989 123.755 13.6934 123.755 14.2266V14.3838C123.755 14.917 123.678 15.4115 123.523 15.8672C123.368 16.3229 123.142 16.7217 122.846 17.0635C122.555 17.4007 122.201 17.665 121.787 17.8564C121.377 18.0433 120.912 18.1367 120.392 18.1367C119.873 18.1367 119.405 18.0433 118.991 17.8564C118.576 17.665 118.221 17.4007 117.924 17.0635C117.633 16.7217 117.409 16.3229 117.254 15.8672C117.1 15.4115 117.022 14.917 117.022 14.3838ZM118.287 14.2266V14.3838C118.287 14.7529 118.33 15.1016 118.417 15.4297C118.503 15.7533 118.633 16.0404 118.806 16.291C118.984 16.5417 119.205 16.7399 119.469 16.8857C119.734 17.027 120.041 17.0977 120.392 17.0977C120.739 17.0977 121.042 17.027 121.301 16.8857C121.566 16.7399 121.784 16.5417 121.958 16.291C122.131 16.0404 122.261 15.7533 122.347 15.4297C122.438 15.1016 122.484 14.7529 122.484 14.3838V14.2266C122.484 13.862 122.438 13.5179 122.347 13.1943C122.261 12.8662 122.128 12.5768 121.951 12.3262C121.778 12.071 121.559 11.8704 121.294 11.7246C121.035 11.5788 120.729 11.5059 120.378 11.5059C120.032 11.5059 119.727 11.5788 119.462 11.7246C119.203 11.8704 118.984 12.071 118.806 12.3262C118.633 12.5768 118.503 12.8662 118.417 13.1943C118.33 13.5179 118.287 13.862 118.287 14.2266ZM128.206 10.6035V18H126.934V10.6035H128.206ZM130.687 10.6035V11.6289H124.501V10.6035H130.687ZM131.309 14.3838V14.2266C131.309 13.6934 131.387 13.1989 131.542 12.7432C131.697 12.2829 131.92 11.8841 132.211 11.5469C132.503 11.2051 132.856 10.9408 133.271 10.7539C133.686 10.5625 134.151 10.4668 134.666 10.4668C135.185 10.4668 135.652 10.5625 136.067 10.7539C136.486 10.9408 136.842 11.2051 137.133 11.5469C137.43 11.8841 137.655 12.2829 137.81 12.7432C137.965 13.1989 138.043 13.6934 138.043 14.2266V14.3838C138.043 14.917 137.965 15.4115 137.81 15.8672C137.655 16.3229 137.43 16.7217 137.133 17.0635C136.842 17.4007 136.489 17.665 136.074 17.8564C135.664 18.0433 135.199 18.1367 134.679 18.1367C134.16 18.1367 133.693 18.0433 133.278 17.8564C132.863 17.665 132.508 17.4007 132.211 17.0635C131.92 16.7217 131.697 16.3229 131.542 15.8672C131.387 15.4115 131.309 14.917 131.309 14.3838ZM132.574 14.2266V14.3838C132.574 14.7529 132.617 15.1016 132.704 15.4297C132.79 15.7533 132.92 16.0404 133.093 16.291C133.271 16.5417 133.492 16.7399 133.756 16.8857C134.021 17.027 134.328 17.0977 134.679 17.0977C135.026 17.0977 135.329 17.027 135.588 16.8857C135.853 16.7399 136.072 16.5417 136.245 16.291C136.418 16.0404 136.548 15.7533 136.634 15.4297C136.725 15.1016 136.771 14.7529 136.771 14.3838V14.2266C136.771 13.862 136.725 13.5179 136.634 13.1943C136.548 12.8662 136.416 12.5768 136.238 12.3262C136.065 12.071 135.846 11.8704 135.582 11.7246C135.322 11.5788 135.016 11.5059 134.666 11.5059C134.319 11.5059 134.014 11.5788 133.75 11.7246C133.49 11.8704 133.271 12.071 133.093 12.3262C132.92 12.5768 132.79 12.8662 132.704 13.1943C132.617 13.5179 132.574 13.862 132.574 14.2266ZM141.003 10.6035V18H139.738V10.6035H141.003ZM145.856 10.6035L142.349 14.8418H140.579L140.387 13.7344H141.836L144.318 10.6035H145.856ZM144.496 18L141.775 14.6504L142.588 13.7344L146.102 18H144.496Z" fill="#FAAD14"/>
<defs>
<clipPath id="clip0_20_3850">
<rect x="8" y="9.99927" width="6.0025" height="6.0015" rx="3.00075" fill="white"/>
</clipPath>
</defs>
</svg>
